<svg id="Layer_1" data-name="Layer 1" xmlns="http://www.w3.org/2000/svg" viewBox="0 0 423 423"><defs><style>.cls-1{fill:#fff;}.cls-2{fill:#201e1f;}.cls-3{fill:#333232;}.cls-4{fill:#efd4c2;}.cls-5{fill:#3c3a3b;}.cls-6{fill:#2d2b2b;}.cls-7{fill:#dcbfab;}.cls-8{fill:#9a8679;}.cls-9{fill:#464445;}.cls-10{fill:#3a3839;}.cls-11{fill:#a58068;}.cls-12{fill:#a17d65;}.cls-13{fill:#a48977;}.cls-14{fill:#c3a38e;}.cls-15{fill:#dfc1ae;}.cls-16{fill:#e3c5b2;}.cls-17{fill:#d4b7a2;}.cls-18{fill:#585657;}.cls-19{fill:#e2c5b2;}.cls-20{fill:#d4b6a3;}.cls-21{fill:#636162;}.cls-22{fill:#b6957f;}.cls-23{fill:#525051;}.cls-24{fill:#c2a18b;}.cls-25{fill:#b3937d;}.cls-26{fill:#b2917c;}.cls-27{fill:#454444;}.cls-28{fill:#d6bcac;}.cls-29{fill:#33302f;}.cls-30{fill:#2c2a2b;}.cls-31{fill:#9a755c;}.cls-32{fill:#967158;}.cls-33{fill:#3a2f28;}.cls-34{fill:#ab8a76;}.cls-35{fill:#3b393a;}.cls-36{fill:#a38775;}.cls-37{fill:#ccad99;}.cls-38{fill:#3e3c3d;}.cls-39{fill:#bc9c87;}.cls-40{fill:#9d775f;}.cls-41{fill:#bd9e89;}.cls-42{fill:#9d775d;}.cls-43{fill:#b89780;}.cls-44{fill:#555454;}.cls-45{fill:#c6a895;}.cls-46{fill:#727071;}.cls-47{fill:#dfc2af;}.cls-48{fill:#c4a996;}.cls-49{fill:#f7decd;}.cls-50{fill:#ddc2b0;}.cls-51{fill:#555354;}.cls-52{fill:#fcfaf9;}.cls-53{fill:#d6b8a4;}.cls-54{fill:#b29c8d;}.cls-55{fill:#caaa96;}.cls-56{fill:#666465;}.cls-57{fill:#b4947e;}.cls-58{fill:#f2d7c5;}.cls-59{fill:#dec2ae;}.cls-60{fill:#c6a690;}.cls-61{fill:#cdaf9b;}.cls-62{fill:#b5927b;}.cls-63{fill:#c7a995;}.cls-64{fill:#a07b62;}.cls-65{fill:#f6dbca;}.cls-66{fill:#f0d5c3;}.cls-67{fill:#d7bba8;}.cls-68{fill:#f2ddd0;}.cls-69{fill:#cfb5a4;}.cls-70{fill:#f5e0d2;}.cls-71{fill:#b89c8b;}.cls-72{fill:#d2b5a2;}.cls-73{fill:#dcbfac;}.cls-74{fill:#d1b8a7;}.cls-75{fill:#d2b4a0;}.cls-76{fill:#f2d8c8;}.cls-77{fill:#c1a694;}.cls-78{fill:#e3d0c4;}.cls-79{fill:#c2a796;}.cls-80{fill:#f4dbca;}.cls-81{fill:#c2a592;}.cls-82{fill:#dcd5d0;}.cls-83{fill:#d6beae;}.cls-84{fill:#e7ccbb;}.cls-85{fill:#a38c7d;}.cls-86{fill:#c5b09f;}.cls-87{fill:#cbad9a;}.cls-88{fill:#4e453e;}.cls-89{fill:#d8bba7;}.cls-90{fill:#d2b4a1;}.cls-91{fill:#fae2d1;}.cls-92{fill:#cab6a8;}.cls-93{fill:#322b27;}.cls-94{fill:#dad9d7;}.cls-95{fill:#f2d9c8;}.cls-96{fill:#dcc7b8;}.cls-97{fill:#e4cdbd;}.cls-98{fill:#eacebb;}.cls-99{fill:#e7cbb9;}.cls-100{fill:#dad9d9;}.cls-101{fill:#403d3b;}.cls-102{fill:#7b6a5c;}.cls-103{fill:#847668;}.cls-104{fill:#2d2725;}.cls-105{fill:#3a3937;}.cls-106{fill:#6c5d4d;}.cls-107{fill:#756557;}.cls-108{fill:#9a8b7d;}.cls-109{fill:#ebcfbd;}.cls-110{fill:#705e52;}.cls-111{fill:#f2ddce;}.cls-112{fill:#5a4d41;}.cls-113{fill:#e7ccba;}.cls-114{fill:#242322;}.cls-115{fill:#615346;}.cls-116{fill:#f9e1d0;}.cls-117{fill:#d8bba8;}.cls-118{fill:#c09787;}.cls-119{fill:#514a45;}.cls-120{fill:#cda596;}.cls-121{fill:#f3ddce;}.cls-122{fill:#32221d;}.cls-123{fill:#b89f90;}.cls-124{fill:#5c5551;}.cls-125{fill:#f6ddcc;}.cls-126{fill:#232120;}.cls-127{fill:#dbd9d7;}.cls-128{fill:#c2ac9c;}.cls-129{fill:#2b1815;}.cls-130{fill:#e4e3e0;}.cls-131{fill:#a48069;}.cls-132{fill:#875f50;}.cls-133{fill:#676560;}.cls-134{fill:#8e8a86;}.cls-135{fill:#c3c1bc;}.cls-136{fill:#aeaaa6;}.cls-137{fill:#78746f;}.cls-138{fill:#99726b;}.cls-139{fill:#74736e;}</style></defs><path class="cls-1" d="M33.82,258.51q0-103.66-.08-207.34c0-3.24.4-4.18,4-4.17q207.36.18,414.73,0c3.71,0,4.28.91,4.28,4.39q-.15,207.09,0,414.18c0,3.37-.41,4.44-4.23,4.43q-207.36-.19-414.73,0c-3.5,0-4-.81-4-4.13Q33.91,362.19,33.82,258.51Z" transform="translate(-33.73 -46.99)"/><path class="cls-2" d="M147.37,236.51c-1.44-9.81-3.37-19.58-4.2-29.44-1.6-19-1.18-38,5-56.43,1.34-1,1.28-3.07,2.93-3.83a21,21,0,0,0,9.42-6.06c3.61-3.94,9.17-5.23,13.14-8.82a1.84,1.84,0,0,1,2.7,0c1.07,1.23.43,2.56-.21,3.69a70.56,70.56,0,0,0-6.82,18.6,25.41,25.41,0,0,0-.31,10.22c3.13-.79,3.92-3.66,5.75-5.32,2.08-1.88,3.79-4.22,6.22-5.68,2.87-1.72,4.48-.8,4.34,2.52-.16,3.53-1.63,6.74-2.91,10-1.37,3.48-3.1,6.9-2.85,11.17,6-.84,9.63-4.92,13.43-8.41,5.72-5.27,11-11.05,16.62-16.41,3.22-3.05,4.08-2.77,5.92,1.59,2.58-2.05,4.09-4.82,6-7.28a25.11,25.11,0,0,1,3.27-3.86,20.54,20.54,0,0,1,2.37-1.8c.88-.51,1.86-1,2.76-.28s.58,1.86.21,2.75c-5.06,12.3-5.29,27.11-18.65,35.16a24.82,24.82,0,0,0,8.54-4.21c3.56-2.46,7.12-4.66,11.61-5.29,3.54-.5,6.17-3.12,8.6-5.65a42.08,42.08,0,0,1,10.63-8.1c5.33-2.83,9-1.11,10.46,4.65,2.82,11.47-.59,17.07-12.52,20.58-2.08.61-3.92,1.79-6,2.36-11.93,5.35-24.58,7.27-37.48,8-1.48.14-2.86-.42-4.32-.65,1,4-.79,6-7.91,9.38a7.65,7.65,0,0,1-1.9.89c-4.95.7-8.86,3.48-12.86,6.2-1.92,1.3-4,3.73-6.59,1.44-2.27-2-.47-4.27.25-6.42-1.12-.76-2.29,0-3.4-.22-4.28-.87-6,1.44-6.79,5.25-1.1,5.35-1.38,10.89-3.77,15.93-3.16,2.69-3.74,5.53-.93,8.95a7.59,7.59,0,0,1,1.14,7.12c-1.73,5.49-.53,11.16-1.51,16.66-.24,1.4-.29,3.13-2.09,3.27-2.17.16-2.63-1.92-3.53-3.34a8.14,8.14,0,0,1-.57-1.44q-1.7-6.14-3-12.37C146.93,240,146.13,238.26,147.37,236.51Z" transform="translate(-33.73 -46.99)"/><path class="cls-2" d="M348.91,144.83c8,14.63,9.64,29.9,6.59,46.35-1.72,9.33-1.4,19.09-3.63,28.45-1.27,5.29-2.73,10.54-4.1,15.8-.92,5.07-2.68,9.9-4.1,14.83-.18.47-.32,1-.52,1.4-.9,1.93-1.57,4.47-4.25,4.15-2.44-.29-2.46-2.86-2.86-4.72-.64-2.91-1.55-5.87-1.34-8.82.73-10-2.65-19.28-4.65-28.8-2.28-5.31-2.83-11.12-4.81-16.51-1.22-7.42-5.95-13.5-7.91-20.64-.66-1.76-1.55-3.42-2.24-5.16a18.13,18.13,0,0,0-1.55-3.12c-1-1.59-2-2.25-3.39-.47-2.81,3.45-6.91,5.11-10.48,7.52a6,6,0,0,1-1.37.55,5.42,5.42,0,0,1-4.38-.66,3.24,3.24,0,0,1-.67-2.08c.44-3,2.36-5.43,3.67-8.76-4.45,4.87-8.31,9.53-13.21,13.17a77.94,77.94,0,0,1-15.81,9.22c-5.85,2.48-12,3.49-18.27,4.39a23.19,23.19,0,0,1-9.3-1.42c-1.28-.7-2.87-1.39-2.3-3.2s2.34-1.39,3.76-1.34a19.42,19.42,0,0,0,3.88-.25c12.38-2.44,23.39-7.57,32.39-16.61,12.35-10.57,19.56-24.71,26.89-38.77,2-1.62,3.37-1.14,4,1.23a13.53,13.53,0,0,1,.23,6.44c-2.07,9.62-1,20.08-7.42,28.59a47.71,47.71,0,0,0,11.49-24.18,14.4,14.4,0,0,1,.73-2.89c.36-1,.78-1.93,2-2s1.73.91,2,1.88c1.86,6.35,4.47,12.52,4.34,19.33,0,2.81.05,5.64,1.73,8.29,1.05-1.26.33-2.62.56-3.84.18-5.46-1.11-10.76-1.54-16.15a30.16,30.16,0,0,1-.33-3.43c0-1.32,0-2.89,1.25-3.55,1.72-.92,2.59.71,3.57,1.76a9.47,9.47,0,0,1,1.7,4.54c.74,5.07,1.71,10.12,1.79,15.29,0-2.63-.77-5.48,2.33-7.18,2.11-1.16,1.38-3.15.94-4.9-1.89-7.4-3.89-14.74-7.52-21.56-.81-1.51-2.83-4.06,1.23-4.6,6.28,5.5,9.34,12.93,11.87,20.54,1.18,3.55,2.09,7.25,2.94,10.92.56,4.08,1.47,8.12,2,12.2-.46-5.62-.21-11.33-2.23-16.75-1.08-3.73-3-7.26-2.84-11.29,1-3.24,2.22-3.82,4.29-.55C345.67,140,346.52,142.92,348.91,144.83Z" transform="translate(-33.73 -46.99)"/><path class="cls-3" d="M222.31,146.83c-.4,2.82-2.81,4.39-4.27,6.53-.88,1.3-2.07,3.75-4.11,2.7-1.72-.89.34-3-.16-4.82-2.13-.1-3,1.72-4.19,2.84-7.25,6.79-13.71,14.39-21.53,20.6-3,2.34-7.08,5.28-9.42,3.77s.07-6.29,1.24-9.45c1.86-5,4.66-9.74,4.4-16-4.86,2.35-7.57,6.14-10.65,9.48-.78.84-1.36,1.88-2.13,2.72s-1.66,1.81-3,1.27-1-1.93-1-3c-.49-9.73,2.83-18.48,6.95-27,.49-1,1.13-2,1.63-3,.1-.21-.14-.59-.48-1.87-4.14,5.17-10.77,6-14.7,10.64a16.18,16.18,0,0,1-9.45,5.65c-1.09-3,.71-5.32,1.94-7.76,4-8.05,9.93-14.75,15.69-21.54,1-1.23,1.81-2.22,1.23-3.83,7.12-11.09,17.39-18.4,29-23.93,7.77-3.68,15.85-6.5,24.58-6.85,4.42-.68,8.82-.21,13.35-.25-.32,2.8-2.43,3-3.94,3.69a210.91,210.91,0,0,0-28.05,15.86,76.75,76.75,0,0,0-15.16,13.49c-3.87,4.47-7.46,9-8,15.49-.44,5-4,9.37-5,14.52a22.42,22.42,0,0,0,5.16-7.81c3.69-7.13,8.93-13.13,14-19.27a9.4,9.4,0,0,1,1.45-1.44,19,19,0,0,0,5.34-5.81c1.91-2.13,3.65-4.45,6.55-5.38,8.33-2.45,15.33-7.42,22.55-11.94a2,2,0,0,0,1-2.11c-1.06-5,2.7-5.34,5.89-5.92,3.38-.61,6.92.1,10.27-1.08,8.5-.2,17-2.69,25.49.12,2.41.8,5.3.83,6.58,3.68a2.91,2.91,0,0,1-3.51,1.2c-9.95-2.77-19.78-.68-29,.71,3.52.38,7.8-.75,11.89.77,1.57,1.85-.27,2.24-1.31,2.69a19.18,19.18,0,0,1-9.3,1.17c-10.48-.84-18.72,3.72-26.85,9.74-7.24,5.37-12.48,12.27-17.92,19.13-3.61,4.75-7.29,9.47-9.52,15.06-1.09,2.73-2.53,6,.27,8.31a8.52,8.52,0,0,0,9.44.67,41.76,41.76,0,0,0,14.26-11.38c3.59-4.57,8-8.4,11.58-13,1.2-1.53,3-4.1,5.42-1a3.49,3.49,0,0,1-.15,1.4c-3.06,4.69-6.64,9-10,13.5C224.85,141.2,222.52,143.45,222.31,146.83Z" transform="translate(-33.73 -46.99)"/><path class="cls-4" d="M358.85,266.54c5.29-2,8.93-.59,12.94,5-.15,1.79-.07,3.7-1.5,5-5.38,5.07-8.39,11.68-11.82,18a71,71,0,0,0-13.92,18.21c-3.59,6.44-9.11,11.79-14.18,17.25A14.82,14.82,0,0,1,316.05,335c-6-1-12.23-.61-18.36-.68-5.36-.06-7-2.07-4.87-7.13,1.89-4.59,4.3-9,6.22-13.57a30.87,30.87,0,0,0,2.72-12,26.38,26.38,0,0,1,2.8-12.49,6.35,6.35,0,0,0,1-3.28c-.53-8.84,3.05-17.32,2.23-26.18.73-4.43,1.7-8.7,7-9.88a10.43,10.43,0,0,1,8.38,1.9,8.54,8.54,0,0,1,2.48,3c.59,1.61.93,3.44.14,4.86-4,7.15-3.22,15.4-5.48,22.9-2.77,9.21-1.11,18.7-2.38,28a5.87,5.87,0,0,0,4.27,6.56c3.24,1.08,5.14-1,6.46-3.34,6.8-11.9,15.44-22.65,21.73-34.89A61.19,61.19,0,0,1,358.85,266.54Z" transform="translate(-33.73 -46.99)"/><path class="cls-5" d="M287.1,90.21l6.09,2.72C284.8,98.19,277.36,105,268,108.67c2.35-1,4.66-2.07,7.09-2.87,1.57-.52,3.25-1.35,4.81-.94a36.51,36.51,0,0,0,14.93.63c1.45,2.22-.64,3.26-1.63,4.55A57.22,57.22,0,0,0,283,131.83c2.16.53,2.61-1,3.26-2,3-4.37,6-8.68,8.73-13.25.73-1.23,1-3.45,3.43-2.57a3.77,3.77,0,0,1-.06,3.79,166.07,166.07,0,0,1-11,20.51c-1.92,2.93-4.48,6.73-8.7,4.92-4.51-1.94-1.76-6.05-1.27-9.21s2-5.95,2.4-9.2a47.31,47.31,0,0,1-5.66,7.24c-1.83,1.73-3.69,3.43-6.54,2.32-1.65-1.6-.07-2.69.71-3.78a40.9,40.9,0,0,1,5.55-6.5c-5.87,5.93-12.75,12.77-18,21-1,1.55-2.17,2.94-1.87,4.94a4.5,4.5,0,0,1-.41,2.08c-1.65,2.58-4.23,4.16-6.48,6.1-1,.89-2.34,1.73-3.53.54s-.22-2.52.45-3.61c1.3-2.1,3.22-3.76,4.65-6.7-3.78,2.18-6.74,4.4-9.78,6.51-1.66,1.16-3.52,3.44-5.64,1.55s-.44-4,.6-5.88a118,118,0,0,1,9.83-14.36c2.2-2.91,4.32-5.89,6.68-8.67,4.26-5,4.43-10.79,3.48-16.84,3.68-5.78,6.07-12.25,9.57-18.12,2.67-2.48,5.42-3.9,8.28-.29.58.73,1.25,1.24,2.06.88C278,91.42,283,92.68,287.1,90.21Z" transform="translate(-33.73 -46.99)"/><path class="cls-6" d="M267.18,133.86c6.22.23,7.91-5.1,10.88-8.86,1-1.3.93-3.68,3.73-3.65,0,5.93-3.46,11-3.93,16.67-.14,1.63-1.25,3.27.72,4.35s3.55.16,4.82-1.34c6.78-8,11.35-17.24,14.7-27.11a2.27,2.27,0,0,1,0-1.43c2-3.57.41-5.45-3-6.55-4.72,1.59-9.24,2.08-14.26.21-3.19-1.18-6.72,1.13-9.83,2.61-1.38.66-2.53,1.48-4.15.8,1.07-3.6,4.65-3.46,7-5,5.07-3.39,10.2-6.7,15.2-10.18a7.12,7.12,0,0,1,4.13-1.41c4.71.66,6.48,4.56,8.54,8a63.49,63.49,0,0,1,3.2,7c-1.37,11.4-7.67,20.4-14.11,29.38-2.62,3.66-5.42,7-9.24,9.45-4.79,4.9-9.85,5.42-15.56,1.4-2.43-1.71-4.95-.78-7.3,1-1.62,1.22-3,3.23-5.53,2.66,0-.67,0-1.34,0-2C257.08,143.79,260.78,137.63,267.18,133.86Z" transform="translate(-33.73 -46.99)"/><path class="cls-7" d="M358.85,266.54c-4.75,10.39-11.21,19.88-17,29.62-3.79,6.38-8.26,12.65-12.41,19-1.52,2.33-3.79,4.79-6.92,3.69a8.61,8.61,0,0,1-6.08-9.18c.36-6.36,2-12.63.69-19.11-.64-3.31,1.83-6.21,2.32-9.53,1.11-7.46,1.34-15.19,5.37-22,.66-1.12.15-2.93.19-4.42.94-.35,1.53.19,2.07.84,1.44,2.16.93,4.46.48,6.75A450.16,450.16,0,0,0,321.16,307c-.17,1.81-.7,3.61.42,5.28,2.91,1.26,3.84-1.24,5.07-2.81,4.08-5.23,7.47-11,11.72-16.08,3.67-3.66,5.39-8.66,8.68-12.57a54.4,54.4,0,0,0-4.82,7.29c-.59,1-1.29,2-2.73,1.72a3.09,3.09,0,0,1-2.44-2.8,10.39,10.39,0,0,1,1.91-7.53,28.33,28.33,0,0,0,5-14.29c.21-3.8,1.93-7.38,3.62-10.77,1.91-3.84,5.09-4.12,7.17-1,.82,4-.92,7.72-1.26,11.6-.12,1.42-1.32,3.14.15,4,1.94,1.17,2.71-1,3.79-2.12C357.74,266.61,358.38,266.65,358.85,266.54Z" transform="translate(-33.73 -46.99)"/><path class="cls-8" d="M277.09,354c.42-2.86-.32-4.07-3.39-2.66-5.07,2.34-10.19,4.58-15.32,6.79-11.09,4.76-21.8,3-32.55-1.51a128.7,128.7,0,0,1-39.77-25.4,82.36,82.36,0,0,1-22.92-39.71c2.16-1.54,2.87.21,3.64,1.66s1.08,3.11,2.1,4.44c.82,1.46,1.77,2.86,2.46,4.4a40.84,40.84,0,0,0,11.07,15.51C193.53,329,206.67,338,219.2,347.82c14,10.94,32.76,11.37,47.51.52,4.15-3,8.69-5.49,12.8-8.59,1.46-1.1,3.13-2.13,4.81-.19a2.58,2.58,0,0,1-.53,2.09,21.06,21.06,0,0,0-3.23,5.76c-1.33,2.43-1,5.09-1.11,7.69-.11,1.89.4,4-1.69,5.29C275.76,358.45,276.75,356.19,277.09,354Z" transform="translate(-33.73 -46.99)"/><path class="cls-9" d="M183.38,138.8c-.58,4-3.73,6.55-5.55,9.86a1.79,1.79,0,0,1-2.57.76c-.91-.57-.36-1.48-.07-2.23,1.42-3.7,3.45-7.29,4.19-11.13,4-20.74,19.82-30.8,36-40.7,6.72-4.11,13.82-7.43,20.78-11.52H223.9c5.25-1.49,10.6-1.38,16-1,4.1-1.24,5.9,2.13,8.37,4.16-2.86,2-6.29.07-9.08,1.19-1.69.67-7.95-1-3.7,4.79.76,1-.44,1.88-1.22,2.34-7.12,4.14-14.25,8.25-21.46,12.24-.92.51-2.26.28-3.4.39-.68-1.37.22-2.3,1.09-3,5.23-4,10.43-8,14.39-9.34-11.34,3.78-21.21,13.48-30.63,23.78a154,154,0,0,0-10.14,13.2C182.83,134.53,181.32,136.48,183.38,138.8Z" transform="translate(-33.73 -46.99)"/><path class="cls-10" d="M328,122.9c-2.92,1.22-.49,2.74,0,3.7,4.17,7.61,6.19,15.9,8.14,24.24.36,1.54,1,3.29-1,3.62-4.1.67-3.35,3.3-2.78,5.9.32,1.44,1.24,3.31-.86,3.59-1.67.22-1.35-1.82-1.51-3.07q-1-7.55-2-15.08c2.09-2.56.23-5.07-.21-7.53-.84-4.7-3.18-8.8-5.81-12.73a40.75,40.75,0,0,1,5.22,11.66c.46,1.55,1.23,3.17-.23,4.64-1.09-.4-1-2.14-2.9-2.19-.12,7.78,2.25,15.36,1.91,23.1-3.24.08-3.64-2.42-3.88-4.66-1.24-12-4.51-23.21-11.75-33.07-1.7-2.31-1.56-2.43.88-5.37.65-.78-.28-1-.47-1.39-1-2.14-.41-3.84,1.27-5.3a20.37,20.37,0,0,1,11.9,2.19C324.53,118.12,329.42,118.87,328,122.9Z" transform="translate(-33.73 -46.99)"/><path class="cls-6" d="M312,113c-.7,2.38-1.69,4.8,1.24,6.52,1,.56,2.39,1.35,1.28,2.61s-1.93-.42-2.78-1c-.66-.44-1.19-1.15-2.45-.53,1.74,5,5.91,8.46,7.75,13.41A122.45,122.45,0,0,1,323,157.38c.35,2.19.86,4.2,3,5.37a2.67,2.67,0,0,1,0,.49c-.37,2,1.08,5.49-1,5.71-2.94.33-3.14-3.49-3.5-5.65-.94-5.65-.39-11.48-2.31-17.08-1-2.9-2.61-5.63-3.09-9-2.43,12.28-6.67,23.47-16.53,32.9.36-6.61,5.34-10.39,5.78-15.81.61-7.37,2.89-14.52,2.71-22,0-1.84.28-4.16-2.83-2.41l-.54-.43c-.87-1.69,0-3.18.7-4.58,1.54-3.15-.58-3-2.6-3.1-.78-4,2.38-6.09,4.27-8.79Z" transform="translate(-33.73 -46.99)"/><path class="cls-11" d="M277.09,354c.41,2-.77,4.33,1,6.15,2,1.63,2.31,3.95,2.31,6.25,0,5.49,1.31,10.73,2.79,15.95,2.85,8.07,8.14,13.77,15.18,18.86,10.76,7.78,22.65,9.28,35.15,9.53a19,19,0,0,0,8.23-1.49c3.28-1.62,7-2.13,10.07-4.34.37-.26.76-.5,1.15-.73,1.44-.75,2.53-2,3.94-2.79.9-.5,2.13-1.23,2.13.84-10.53,13.11-24.69,14.89-39.89,12.12-11.64-2.12-22.5-6.13-31.09-15.11-4.62-4.84-8-10.11-9.58-16.48C276.13,373.29,274.52,363.74,277.09,354Z" transform="translate(-33.73 -46.99)"/><path class="cls-12" d="M380.74,361c-1,1-2,2.08-3.05,3.11-2.34,2.13-5.22,1.17-7.88,1.39-4.06.29-7-1.85-9.32-4.76s-4.5-2.73-7-.42a25.56,25.56,0,0,1-13,6.78,15.57,15.57,0,0,1-11.3-1.85c-5.47-3.59-11.07-5.24-17.09-1.24-2.88,1.54-3,5.35-5.72,7a2.48,2.48,0,0,1-2.23.24c-2.46-4.07-2.26-6.34,1.18-9.49a21.2,21.2,0,0,1,19.31-5.48c5.76,2.29,11.29,5.48,17.88,4.57,4.13-.57,7.54-2.15,9.27-6.24a5.72,5.72,0,0,1,1.14-1.81c.49-.5,1-.94,1.57-1.39,2.5-2,4.29-4.79,7.13-6.4a1.74,1.74,0,0,1,1.35.23,2.64,2.64,0,0,1,.71,1.78c.07,8.31,2.44,10.81,10.7,12C376.51,359.41,379.41,357.91,380.74,361Z" transform="translate(-33.73 -46.99)"/><path class="cls-13" d="M168.42,298.38c-1.89-.7-1.86-2.59-2.5-4.06-.56-1.29-.6-3.11-2.78-2.8l-9.56-.22c3.06-4.09,1.76-8.4.62-12.71.24-6.73-2.88-12.89-3.25-19.52-.08-1.61-.86-3.27.63-4.66.55.81,1.13,1.61,1.64,2.44s.74,1.66,1.77,1.06c.82-.47.58-1.45.56-2.27.91-1.21,0-2.88,1.42-4.84,2.57,3.91,2.21,8.74,5.27,11.81,1.54,5,.87,10.3,2.38,15.29.73,5.09,2.57,9.9,3.85,14.85C169,294.62,170,296.52,168.42,298.38Z" transform="translate(-33.73 -46.99)"/><path class="cls-14" d="M354.78,253.39c-3.6-3.47-5.73-.29-6.53,2.24-1.44,4.47-3.77,8.73-3.46,13.8.21,3.48-2.39,6.38-3.87,9.47-.28.57-1.05.94-1.24,1.52-.9,2.7-3.56,6.15-.46,8,2.24,1.36,3.19-2.74,4.66-4.43,1.89-2.19,2.51-5.34,5.56-6.78-3.49,5.76-5.92,12.14-10.66,17.17-1.35-1.57-3.75-1.54-5-3.25,2.58-4.08,2.24-8.95,3.48-13.39,1.64-5.86,2.61-11.94,4.31-17.81.11-6.63,4.91-10.17,9.62-13.82-4.12-.55-4.5,4-7.48,4.69-.82-.19-1.34-.56-.9-1.5,1.42-4.71,1.75-9.82,5-13.88C355.85,239.18,355.18,246.33,354.78,253.39Z" transform="translate(-33.73 -46.99)"/><path class="cls-15" d="M155.49,279.42a21.4,21.4,0,0,0,1.21,4.27c2,3.88-.6,5.69-3.12,7.62-4.82-2.75-5.68-7.82-7-12.44-2.42-8.65-3.72-17.55-4.93-26.44,4.73-2.14,8.16-.05,9,5.85C151.69,265.47,152.75,272.63,155.49,279.42Z" transform="translate(-33.73 -46.99)"/><path class="cls-16" d="M350,316.32c8.82-1,15.84,1.45,19.54,10.21a6.92,6.92,0,0,1,.22,1.9c-1.85,5.15-2.06,11-6.77,14.89-5.59,2.53-16.63-.33-20-5.19-1.64-2.35-1.34-5-1.1-7.61a31.92,31.92,0,0,1,5.82-12.85C348.28,316.93,348.73,316,350,316.32Z" transform="translate(-33.73 -46.99)"/><path class="cls-17" d="M357.92,293.4c2.93-6.28,6-12.41,11.23-17.25,1.23-1.16,1.78-3.06,2.64-4.61a4.67,4.67,0,0,1,.93,4c-6,10.09-11.26,20.61-19.16,29.42-2.07,2.31-2.6,5.34-4.13,7.89-1.84,3.32-4,6.44-5.95,9.71-2.08,3.52-3.44,7.06-3.31,11.21a10.61,10.61,0,0,1-2.88,7.7c-2.18,1.21-4.18.45-6.05-.7-1-.64-2-2-.91-2.82,3.67-2.71,3.11-7.12,4.72-10.62,2.51-5.43,6.13-10.15,9.5-15,1.5-2.17,3.09-4.21,3.54-7,.38-2.26,2.35-3.5,4-4.89C354.41,298.45,356.94,296.57,357.92,293.4Z" transform="translate(-33.73 -46.99)"/><path class="cls-18" d="M248.24,87c-3.69.43-4.93-4.07-8.37-4.16,10.34-2.12,20.71-4.43,31.15-.85,4.94,1.69,10.35,2.62,13.92,7.06-.91,1.78-1.86,3.45-3.81.93-7-3.37-14.16-4.87-22-3.3C255.63,87.39,251.88,86.93,248.24,87Z" transform="translate(-33.73 -46.99)"/><path class="cls-19" d="M373.86,329.2c5.32-.58,9.06,1.88,11.86,6.16.9,5.13-.38,10.14-.82,15.2-.16,1.9-.57,3.62-2.76,4.15-2.89-.46-1.75-2.74-1.73-4.29,0-2.62.43-5.24.06-7.86-.15-1.12-.34-2.7-1.73-2.59-3,.24-4.83,2.55-6.78,4.5a3.59,3.59,0,0,0-.63,4.89c.77,1.25,2.68,2.27,1.25,4.22-6.88-1.4-9.22-6.09-5.53-11.71C369.71,337.83,371.09,333.15,373.86,329.2Z" transform="translate(-33.73 -46.99)"/><path class="cls-20" d="M380.86,354.22c3-.26,3-2.41,3-4.63a55.59,55.59,0,0,1,1.87-14.23c4.73,7.74.63,14.76-1.79,21.91-7.37,3.34-14.74,1.5-18.91-4.49a8.79,8.79,0,0,1-1.08-8.95c2.25-4.79,3.84-9.8,6-14.6l3.93,0c-.17,4.62-2.68,8.31-5,12-4,6.38-3.25,8.79,4,12C375.78,351.69,378.19,354,380.86,354.22Z" transform="translate(-33.73 -46.99)"/><path class="cls-21" d="M328,122.9a4.06,4.06,0,0,0-2.61-3.76c-2-1-1.84-2.34-1.42-4,6.64,2.07,10.12,7.62,14,12.74,1.1,3.29,2.67,6.44,3,10,.13,3.9,2,7.35,2.92,11,1.07,4.22.88,4.7-2,5-1.52-4.81-2.84-9.68-4.6-14.39C335.05,133.5,331.6,128.14,328,122.9Z" transform="translate(-33.73 -46.99)"/><path class="cls-6" d="M281.13,90c1.62,1.15,2.63-.24,3.81-.93.37,1,1.41.83,2.16,1.16-.2,1.73-1.18,2.77-2.91,2.69-4.64-.2-9,1.1-13.24,2.87-.29-5.24-.62-5.36-6.77-2.81a2.11,2.11,0,0,1-3,0H242.81a13,13,0,0,1,6.95-3C260.23,88,270.67,87.23,281.13,90Z" transform="translate(-33.73 -46.99)"/><path class="cls-2" d="M307.05,113c.44,3.74-4.12,5.24-4,8.85-.3,2.06-1.66,3.64-2.5,5.46-4.57,6.81-9.61,13.3-14.31,20a9.71,9.71,0,0,1-.83,1.11c-1.32,1.34-2.7,2.59-4.72,2.73-3.62-2.09-1.41-3.71.43-5.35,9.8-9.48,18.24-19.8,21.41-33.55.34-1.48-.29-4,2.39-4.34C305.58,109.64,305.12,111.82,307.05,113Z" transform="translate(-33.73 -46.99)"/><path class="cls-22" d="M369.93,329.23c.27,5.36-3,9.59-4.72,14.29s-.12,9.12,4.27,12c4.64,3.09,9.51,2.19,14.45,1.71-1.11,1.21-1,3.45-3.19,3.75-3.35-1.48-7-.27-10.5-1.5-6.77-2.38-8.62-5-7.55-12.13a2.06,2.06,0,0,0-.8-2.17c-1.07-1.48,0-2.22,1-3,2.42-2.64,3-6.11,4.27-9.3.63-1.6.43-3.74,2.55-4.53A3.11,3.11,0,0,0,369.93,329.23Z" transform="translate(-33.73 -46.99)"/><path class="cls-22" d="M368.8,364.3l8.89-.17c-5.13,13.24-8.6,27.28-18.65,38.11-2.94-1.05-3.38,3.42-6.13,2.79-1.13-1.76.35-2.62,1.29-3.62,1.87-2,3.79-3.94,4.82-6.56a6.17,6.17,0,0,1,1.3-1.66c5.31-4.91,7.7-11.41,9.78-18.06a10.78,10.78,0,0,1,1-2.75c2-3.23,2.79-6-2.11-7.19C368.77,365.13,368.75,364.65,368.8,364.3Z" transform="translate(-33.73 -46.99)"/><path class="cls-23" d="M170.27,114.62c1.33.89,2.4,1.37.7,3.37-5.95,7-12,13.89-16.4,22.07a36.63,36.63,0,0,0-3.16,7.69l-3.22,2.89a67,67,0,0,1,17.6-30.88C167.4,118.16,168.78,116.34,170.27,114.62Z" transform="translate(-33.73 -46.99)"/><path class="cls-24" d="M155.49,279.42c-3.65-3.56-4.18-8.34-5-13-.52-3.07-.42-6.27-1.18-9.26-1-3.77-3.54-5.7-7.67-4.76.19-3-1.09-6.19.71-9.11a19.39,19.39,0,0,0,5.83,5.86c2,1.13,2.34,3.46,3.38,5.27v0C151.88,262.91,156,270.81,155.49,279.42Z" transform="translate(-33.73 -46.99)"/><path class="cls-25" d="M349,312.33a17.81,17.81,0,0,1,5.55-10.15c4.48-4.19,6.5-10.15,10-15.06,2.76-3.83,5.46-7.7,8.19-11.56-.58,7-5.9,11.56-8.73,17.4-3.43,7.1-8.86,12.92-12.93,19.62C350.38,312.31,349.6,312.89,349,312.33Z" transform="translate(-33.73 -46.99)"/><path class="cls-26" d="M349,312.33c.74-.19,1.55-1,2.11.25a5.09,5.09,0,0,0-1.08,3.74,50,50,0,0,0-7,13.95,17.71,17.71,0,0,0-.82,7.59c.18,2.09.28,4.34-2.49,5.08a2.48,2.48,0,0,1-2.6-1.72c1.46-3.71,1.44-7.67,2.14-11.49C340.4,323,344.63,317.55,349,312.33Z" transform="translate(-33.73 -46.99)"/><path class="cls-13" d="M151.59,254.45c-2.45-2.22-4-5.31-7.59-6.42-2.05-.63-1.35-3-1.62-4.71.07-.56.15-1.12.22-1.68,1.25-1.28,2.51-.5,3.37.33,1.27,1.22,1.82.27,2.56-.47A62.72,62.72,0,0,1,151.59,254.45Z" transform="translate(-33.73 -46.99)"/><path class="cls-27" d="M340.94,137.85c-1.2-3.26-4.29-5.95-3-10,4.64,5,9.12,10.12,11,16.94-4.22-.52-4.18-4.62-5.81-7.2C341.76,135.5,341.49,136,340.94,137.85Z" transform="translate(-33.73 -46.99)"/><path class="cls-28" d="M148.53,241.5c-.47.92.6,3.52-2.15,1.94-1.22-.69-2.13-2-3.78-1.8,1.07-2.19,1.21-5.25,4.77-5.13Q147.94,239,148.53,241.5Z" transform="translate(-33.73 -46.99)"/><path class="cls-29" d="M161.46,263.57c-2.9-3-4-6.7-4.13-11.33l-1.78,3.4c1-5.42-.73-11,1.41-16.47a7.44,7.44,0,0,0-1.51-7.77c-3.45-4-2.79-6.08,2-8.81,1.83-1.7,4.42-1.17,6.47-2.24,9.54-3.13,19.39-1.94,29.14-2.13,2,0,4,0,6,0a45.08,45.08,0,0,1,7.16.34c2.4.88,4.93.53,7.4.73,5.94.47,11.62,1.56,14.87,7.43,1.12,2,3,2.46,5.07,2.47,4.16,0,8.32-.15,12.46.06,4.66.25,8.77,0,11.42-4.82,1.22-2.2,4-2.87,6.36-3.67A46.92,46.92,0,0,1,277,218.47c11.78-.39,23.58-.58,35.36.05,3.17.94,6.56.87,9.68,2.07,2.08.83,4.4.53,6.5,1.28,4.12,1.48,4.84,5.11,3.31,8.12-3.33,6.58-2,13.68-3.42,20.42-.37,1.75.52,4.12-2.22,4.78-.26-.51-.59-.86-1.22-.6l-2.07-2.06c-1.06-1.64-.82-3.41-.63-5.23a49.25,49.25,0,0,0-.18-14.19c-.61-3.39-2-6.3-5.75-7.18-4.37-1.4-9-.52-13.39-1.33a74.58,74.58,0,0,0-20.46-.09,22.74,22.74,0,0,1-4.93.45c-4.32-.26-8.39,1.17-12.54,2-3.36.64-3.91,3.6-4.9,6.17a33.43,33.43,0,0,0-.07,13.22c.61,4.13.67,8.43,3.63,11.84,3.92,3.27,8.66,3.77,13.46,3.85,8.05.14,16.09-.06,24.15.08,1.88.29,4.35.25,4.24,2.87-.16,3.35-3.54,2.56-5.53,3.56-11.47.58-22.95,1.46-34.22-1.69-8.19-2.6-10.4-9.33-11.62-16.77-1.19-4.63.8-9.6-1.45-14.12-4.68-1.89-9.57-.53-14.33-.92-1-.06-2,0-2.95-.1-3.76-.51-5,1.28-4.81,4.8a54.16,54.16,0,0,1-.87,12.24c-.84,4.5-2.43,8.49-5.83,11.65-4.38,3.89-9.93,4.37-15.3,4.76-11.82.85-23.67,1.42-35.47-.44-2.22,0-4.27-.86-6.41-1.28S163.22,264.61,161.46,263.57Z" transform="translate(-33.73 -46.99)"/><path class="cls-30" d="M281.13,145.82c-.27,1.66-3.2,3.32,0,5,.29,2.7-1.82,3.56-3.65,3.76-6.3.69-9.27,5.35-11.07,10.19-3.55,9.58-9.38,16.48-19.05,20a3.47,3.47,0,0,0-1.13.94,5.25,5.25,0,0,1-5.17.45c-.88-.42-2.09-.75-2.31.64-.08.51,1,1.19,1.5,1.8a2.65,2.65,0,0,1-2.89.78c-3.48-2.77-3.47-3.23.14-5,1.87-.94,3.78-1.76,5.69-2.59,4-2.89,9.26-2.57,13.26-6,5.95-5.05,7.36-12.6,2.53-18.66-1.48-1.85-3.08-2.72-5.59-1.55a39.45,39.45,0,0,0-11.67,8.21c-3.63,3.69-7.33,7.12-13.1,7.15-2.53,0-4.42,2.17-6.44,3.57a61.65,61.65,0,0,1-14.4,7.53c4.74-7.61,12.13-11.39,14.88-18.85,2.67-7.2,2.77-15.16,7.81-22.07-3,.18-3.58,2.25-5.2,2.71-1.41-2.63.84-3.88,2.19-5.27a67.88,67.88,0,0,0,9.94-12c3.89-5.07,8.55-9.42,13-13.93,1-1,2-2.27,3.76-1.66.85.14,2,.47,1.79,1.34-1.25,5.14,0,10.68-3.92,15.45-6.29,7.63-12.59,15.33-17.43,24-.82,1.48-2.29,3.08-.71,4.36,1.34,1.09,2.66-.89,3.76-1.65,4-2.76,7.68-6.06,13.07-8.06-1.09,5.3-5.52,7.69-7.31,12.33,5-.68,6.29-5.31,9.74-6.94.53-.36,1.1-.69,1.6-1.1,7.38-6.11,9.23-6.36,17.1-1,1.86,1.25,2.8.94,4.18-.26C277.63,148,278.66,145.89,281.13,145.82Z" transform="translate(-33.73 -46.99)"/><path class="cls-31" d="M163.41,221.64c-1.76,1.69-3.9,1-5.94,1,1.16-6,2.18-12.05,3.54-18,.78-3.38,2.67-5.79,6.76-4.29,2.33.86,4.5-1.05,6.78-.47,0,.44.12.81,0,1-1.34,2.12-4.69,4.29-2.33,6.74s4.22-1.26,6.11-2.41c4.11-2.51,7.94-5.48,13.07-5.46C186.1,206,179.88,210.79,171.23,210c-3.49-.33-3.72,1.7-4.67,3.66C165.77,216.41,163.05,218.42,163.41,221.64Z" transform="translate(-33.73 -46.99)"/><path class="cls-32" d="M243.19,181.73c-2.05,1.2-4,2.52-6.15,3.59-2.86,1.44-.71,2.32.25,3.37.32,1.71-1,2.37-2.13,2.85-5.5,2.33-10.81,5.22-16.83,6.12-2-2.72-4.77-3.78-8-4.52-2.13-.49-5.09-.09-5.73-3.33,12-1.22,24.09-1.89,35.2-7.36A13.87,13.87,0,0,1,243.19,181.73Z" transform="translate(-33.73 -46.99)"/><path class="cls-33" d="M204.65,189.81c2.6,1.93,5.75,2.32,8.77,2.77s4.76,1.91,4.87,5.06l-.15.76c-2,3.64-5.31,3.68-8.8,3.26a25.62,25.62,0,0,0-5.15-.76,8,8,0,0,1-2.89-.64c-2.63-2.47-6.22,1-8.86-1.43,1.86-1.76,4.78-1.7,6.42-4,1.49-2.14,5-4.08-2.11-5C200.37,188.33,202.49,190.25,204.65,189.81Z" transform="translate(-33.73 -46.99)"/><path class="cls-34" d="M192.44,198.83c3,.76,6.29-2.94,9.07.67a2.68,2.68,0,0,1-1.79,1.19,12.37,12.37,0,0,0-5.46,2c-4.59,2.89-9,6-14,8.31-3,1.41-5.59,3.39-9.08,1.08-2.18-1.44-3.39,2.56-5.75,1.5,1.19-3.39,1.52-7,7.2-4.36,3,1.41,6.82-1.59,9.9-3.38s5.92-4.08,8.86-6.15Z" transform="translate(-33.73 -46.99)"/><path class="cls-35" d="M238.25,126.87c-1.83,4.11-4.95,7.22-7.93,10.47-1.84,2-4.64,3.33-5,6.47-1,1-2,2-3,3-3-1.13-.64-2.8-.06-3.66,4.29-6.38,8.66-12.72,14-18.3C237.26,125.19,237.63,126.16,238.25,126.87Z" transform="translate(-33.73 -46.99)"/><path class="cls-36" d="M326.22,255.19c.52-4.72,1.07-9.43,1.56-14.14.37-3.58-.75-7.12,2.57-10.47a4.82,4.82,0,0,0-2.5-7.84c-.88-4-1.68-8.05,3.24-10.26,3.85,11.48,5,23.39,5.81,35.37a67.22,67.22,0,0,0,1.31,7.41c3.68-.63,2.71-4.36,4.58-5.95l1.09,1.08c1,1.83-.33,3.12-1.1,4.51-.88,1.57-1.27,3.07.12,4.56-1.91,7.92-3.86,15.84-5.71,23.78-.43,1.81-1.5,3.39-.42,5.63,1.3,2.71-2.57.64-2.84,2.33-5.93,6.79-9.33,15-12.88,23.12-3.44-4.44-.92-9.21-.51-13.75a344.44,344.44,0,0,1,6.25-41.51C327.05,257.87,326.43,256.48,326.22,255.19Z" transform="translate(-33.73 -46.99)"/><path class="cls-37" d="M321.86,221.72l-9.09-2c2.89-3.38,2.12-6.45-.78-9.34-1-1-2.27-1.87-2.19-3.56,1.34-1.83,3.08.3,4.61-.47.73-1.77-1.49-3.29-.54-5.09a19.29,19.29,0,0,0,2.36-13.4c-.57-2.93.14-5.93-.62-8.75-2.37-.37-3.49,2.47-5.74,1.64a3,3,0,0,1-.57-2.15,6.62,6.62,0,0,1,1.56-3c2.74-3.45,3.91-3.43,7.27.08,2.17,7.11,7.34,13.08,8,20.79.45,7.52-1.46,14.86-1.82,22.32C324.22,220.07,324.1,222,321.86,221.72Z" transform="translate(-33.73 -46.99)"/><path class="cls-38" d="M305.22,129.89a105.81,105.81,0,0,1-16.33,28.52c-3,3.66-6.49,6.9-9.76,10.33-1.34,1-2.82,1.73-4.13,2.72-2.67,2-5.44,1.94-7.59-.33-2.41-2.54-.46-5,1.3-7,3.21-3.53,6.22-7.27,10.18-10.07a26.62,26.62,0,0,0,6.24-6.29h0c.92-.9,1.23-2.75,3.18-2,.7,2.48,1.58,2.23,3.05.42,3.72-4.6,7.38-9.24,10.77-14.09.7-1,1.1-2.51,2.84-2.28Z" transform="translate(-33.73 -46.99)"/><path class="cls-6" d="M285.13,147.81c-2.58,6.19-8.91,9-12.7,14.13-1,1.32-2.44,2.26-3.39,3.59s-2.74,3-1.13,4.78a4.77,4.77,0,0,0,5.93.92c1.74-.9,3.21-2.32,5.29-2.49-9.09,9.29-20.19,14.68-32.9,16.95,0-2,1.43-2.89,3-3.45,8.06-2.84,12.11-9,15.32-16.58,2.29-5.42,4.61-12,12.67-12.13a4.44,4.44,0,0,0,3.88-2.73Z" transform="translate(-33.73 -46.99)"/><path class="cls-39" d="M218.29,197.64c3.18-2.81,7.45-3.16,11.12-4.9,2.68-1.27,5.56-2.08,7.88-4.05l3-.11,9.95,1.14c-.46,2.68-.15,4,3.35,3.46a38.52,38.52,0,0,0,14.81-5.13c7.17-4.55,15.47-7.39,21.2-14.14a3.61,3.61,0,0,1,4.46-1.12l.11,1.85c.31,3.32-3.21,3.64-4.47,5.73a74.87,74.87,0,0,1-12.19,8.15,21.54,21.54,0,0,0-4.36,1.8c-1.93,1,.75,1.11.28,1.81-1.45,2.4-3.91,2.73-6.32,3.16-3.62-.4-6.69,1.56-10,2.39a27.78,27.78,0,0,1-8.28,1.27,9.09,9.09,0,0,1-7-2.8c-2.78-2.78-5.88-3.28-9.1-.6-3,1.49-5.92,3.34-9.29,4.1-1.73.19-3.45.86-5.2.12a1.69,1.69,0,0,1,.13-2.11Z" transform="translate(-33.73 -46.99)"/><path class="cls-40" d="M294,172.79a15.07,15.07,0,0,0-5.19,3.53c-6.89,6.76-15.92,10.22-24.07,15.05-3.68,2.19-7.86,2.21-11.84,3.12-1.68.38-4,1-5.13-.58-1.51-2.28,2.19-2.41,2.41-4.19a63.42,63.42,0,0,0,35.66-15.84c4.44-3.87,8.82-7.81,12.88-11.41C298.12,165.63,295.94,169.16,294,172.79Z" transform="translate(-33.73 -46.99)"/><path class="cls-41" d="M321.86,221.72c3-4.37.8-9.49,2.07-14.15,1-3.62,1.46-7.39,2.17-11.09,2.81,5,2.31,11,5,16-3.36,2.7-2.13,6.85-3.24,10.26C325.79,222.79,323.69,223,321.86,221.72Z" transform="translate(-33.73 -46.99)"/><path class="cls-42" d="M298.91,174.48c4-3.11,8.95-5,11.9-9.53,1-1.46,2-.68,2.6.55.81,1.77,2.52,3.13,2.44,5.31-2.57,1-4.15,3-5.61,5.24s-3.21,4.82-6.5,4.52C300.17,180.24,299.9,177,298.91,174.48Z" transform="translate(-33.73 -46.99)"/><path class="cls-43" d="M298.91,174.48a3,3,0,0,1,2.14,1.79c1.76,4.2,3.94,4.52,6.89,1a18.43,18.43,0,0,0,3.22-4.94c1-2.74,2.74-2.22,4.69-1.49l2.28,4.88c-4.59-4.05-6,.47-8.09,3-1.32,2.46-3.63,3.79-5.94,5.06s-5.15,1.65-6.38-1.19c-1.12-2.59-2.93-6,1.35-7.9Z" transform="translate(-33.73 -46.99)"/><path class="cls-44" d="M327,141.84c-.94-7-4.14-13.2-7.68-19.32,4,.59,4.41,4.19,6.13,6.5,2.72,3.63,3.58,8.13,4.43,12.49.31,1.55,1,3.83-1.85,4.29A6.83,6.83,0,0,0,327,141.84Z" transform="translate(-33.73 -46.99)"/><path class="cls-45" d="M299.07,174.68c-2.29,2.65-1.61,5.85,0,8,2.06,2.75,4.34-.12,6.37-1.18,1.59-.83,3.08-1.85,4.61-2.78,0,.67,0,1.33,0,2-4.91,6.24-9.79,6.85-15.25,1.47-1.74-1.72-4-1.34-5.71-2.49.85-2.51,4.05-2.69,5-5.05Z" transform="translate(-33.73 -46.99)"/><path class="cls-27" d="M341.89,153.88c3.16-.68,1.66-3.2,2-5,2.82,7.23,2.06,14.68,1.29,22.2C343.88,165.36,341.92,159.81,341.89,153.88Z" transform="translate(-33.73 -46.99)"/><path class="cls-9" d="M238.25,126.87a1.83,1.83,0,0,1-2-2h0c1.23-5.32,6.56-7.6,9.66-13-8.21,6.93-14.94,13.85-23.19,18.95a20.09,20.09,0,0,1-14.18,3c-6.5-1-7.44-3-4.2-9,8.8-13.68,20.07-24.39,35.95-29.39,3.87-1.21,7.93-.37,11.89-.49,3.16-.1,6.23-.33,9-2h3c-3,6.16-4.74,13-10,18C248.33,115.67,243.5,121.48,238.25,126.87Z" transform="translate(-33.73 -46.99)"/><path class="cls-35" d="M204.34,124.87c-1.76,6.69-1.06,7.33,6,8,9,.9,14.61-5.24,20.91-9.7,4.37-3.08,8-7.19,12-10.8,1.17-1,2.52-3.34,3.95-2.08,1.86,1.62-.7,3.26-1.6,4.38-2.88,3.58-6.2,6.8-9.35,10.16-1-3.42-2.37-1.1-3.3-.11-3.74,4-7.77,7.73-10.92,12.13-3.77,5.28-8.9,8.76-13.93,12.48-3.7,2.73-7.8,2.21-11.81,1.18-2.12-.55-2.91-2.4-2.95-4.66a16.89,16.89,0,0,1,2.78-9.38C198.63,132.48,200.8,128.18,204.34,124.87Z" transform="translate(-33.73 -46.99)"/><path class="cls-46" d="M193.4,118.91c9.58-11.1,19.82-21.27,34.82-24.72-6.3,4.56-13.52,7.86-18.84,13.76l-5.88,5c-1.68,2-3.58,3.72-5.2,5.74l-1.08,1.1C195.68,120.63,194.08,121.67,193.4,118.91Z" transform="translate(-33.73 -46.99)"/><path class="cls-21" d="M193.4,118.91c1,1.42,2.49.86,3.82.92-4.52,6.39-10,12.11-13.84,19-3.19.18-3.31-1.35-2-3.67A81.71,81.71,0,0,1,193.4,118.91Z" transform="translate(-33.73 -46.99)"/><path class="cls-21" d="M198.3,118.73c.79-2.77,2.81-4.43,5.2-5.74A10.43,10.43,0,0,1,198.3,118.73Z" transform="translate(-33.73 -46.99)"/><path class="cls-47" d="M337,341.22l1.94,1a37.08,37.08,0,0,1,11.26,2.54c4.32,1.88,5.16,4,3.71,8.46l-1,1a1.11,1.11,0,0,1-1.44-.08,11.27,11.27,0,0,0-6.87-4.51c-5.46-1.49-10.8-3.42-15.36-6.83-6.76-5.05-14.77-4.25-22.41-5.14a32,32,0,0,0-9.9.24c-2.83.58-5,2.19-5,5.34,0,2.94,2.09,4.37,4.66,5.07a18.91,18.91,0,0,0,9.36.16c8-1.87,15.28.33,22,4.07,6,3.36,11.72,6.15,18.73,4a2.61,2.61,0,0,1,2.34.55c-.54,3.39-3.24,3.64-5.86,4-5.66.85-10.69-1.15-15.61-3.51-1.64-.78-3.27-1.55-4.93-2.27a20.2,20.2,0,0,0-14.52-.18c-6.13,2.06-12.48,1.08-18.7,1.86-3.9.49-6.82-4.09-6.23-8.95a21.64,21.64,0,0,1,4.33-10.42c1-1.33,2.25-2.47,1.64-4.38-.26-3.84,2-7,2.93-10.5,4.39-9.31,6.91-19.14,8.75-29.25,1.93-10.65,3.51-21.37,5.49-32a3.68,3.68,0,0,1,1.24-2.09,1.17,1.17,0,0,1,1.47,0c1.15,9.16-.48,18.57-2.61,26.93-3.4,13.32-3.05,28-11.77,39.81-1.27,1.72-2.47,4-1.18,6s3.69.07,5.41.37c5.93,1,12.09-.47,17.74,1s9.49-1,12.75-4.4c5-5.25,10.22-10.57,13.77-16.77,4.09-7.14,8.61-13.63,14.75-19a4.11,4.11,0,0,1-1.2,3.63c-8.56,7.24-12.16,17.89-18.35,26.75-1.94,2.78-3.63,5.89-3.48,9.65.1,2.75-2.15,4.18-5,5.43C332.6,340.44,334.64,341.33,337,341.22Z" transform="translate(-33.73 -46.99)"/><path class="cls-48" d="M317,224.76c3.67.42,5.24,2.85,6,6.16,1.73,7.22,1,14.41-.09,21.61-2.52-1.11-5-2.28-7.89-2a8.9,8.9,0,0,1-3.49-2c-2.45-4.3-4.83-8.61-8.95-11.66-1.09-.81-2.49-1.88-1.33-3.67,2.5-1.44,4.69-.21,6.94.77,4.9,2.11,5.18,2,5.55-3.21C313.94,228.21,314.1,225.78,317,224.76Z" transform="translate(-33.73 -46.99)"/><path class="cls-49" d="M309.82,276.58c3.38-5.92.84-12.19,1.28-18.3.28-3.95,3.91-5.21,6.6-5.1,3.22.12,5.1,2.95,4.06,6.59a41.42,41.42,0,0,1-1.94,5.1c-1.33,3-4.61,5.25-1.39,9.59,1.37,1.85-1,6-3.4,8.2-1.4,1.34-2.78.64-3.72-.83A9.09,9.09,0,0,1,309.82,276.58Z" transform="translate(-33.73 -46.99)"/><path class="cls-50" d="M311.84,248.39c1.4.2,3.08,0,3.2,2.11-4.26,1.48-5.44,5-6,9h-1c-1.06-.77-.69-3-2.82-2.69a7,7,0,0,1-2.53-7.23c1.91-1.76,4.64-1.14,6.76-2.32A1.83,1.83,0,0,1,311.84,248.39Z" transform="translate(-33.73 -46.99)"/><path class="cls-9" d="M295.09,105.94c7.3,0,7.3,0,3,8q-5.4,8.3-10.81,16.58c-1.16,1.76-2.4,4.66-4.55,3.77-3-1.26-.7-4.23-.11-6.06C285.29,120,288.92,112.23,295.09,105.94Z" transform="translate(-33.73 -46.99)"/><path class="cls-51" d="M267.18,133.86c-4.9,5.09-8.71,11.15-14,15.92-1.88-3.94,2.15-5.42,3.58-7.75,5.28-8.59,12.82-15.23,20.94-23-.41,4.58-3.48,5.72-5.07,7.87C270.89,129.26,269,131.54,267.18,133.86Z" transform="translate(-33.73 -46.99)"/><path class="cls-52" d="M321.05,314.32a9.49,9.49,0,0,1,1.32-6.58c2.5-4.4,4.82-8.89,7.37-13.26a7.25,7.25,0,0,1,4.19-3.28c1.83.75,5.5-1.31,4.86,3.19-4.18,5.72-8.54,11.32-12.45,17.22A5.25,5.25,0,0,1,321.05,314.32Z" transform="translate(-33.73 -46.99)"/><path class="cls-53" d="M290.11,333.27c2.33,1.77.43,2.78-.61,4.16-3.49,4.63-6.72,9.42-4.26,15.68a4.23,4.23,0,0,0,5.05,2.92c8.09-1.14,16.29-1.33,24.31-3.34a11.75,11.75,0,0,1,8.41,1.53c-2.35,2.15-5.39.77-8,1.58a9.34,9.34,0,0,1-1.4.39c-5.08.55-9.65,3-14.71,3.85-2.76.43-4.38,2.86-4.23,5.88.14,2.76,4.25,7.31,6.83,7.67,1.26.18,2.64-.5,3.77.57q-1.66,6.87-8,5.68c-.82-.16-1.58-.52-2.38-.71-1.77-.42-3.82-1.17-4.71,1.14s.52,3.84,2.4,4.85a48.75,48.75,0,0,0,8.85,3.21c3.81,1.19,6.89,3.17,8.68,6.86,1.5,3.09,4.06,4.46,7.35,5.23,8.83,2.07,17.59,2.66,26.46.32,7.18-1.9,11.7-7.17,16.36-12.36,1.27-1.41,2.12-3.49,4.53-3.45,1.35,4.17-2.16,6.29-3.89,9.16l-1,1c-8.4,11-19.65,14.43-33,12.59-3.28-.45-6.61-.7-9.84-1.45-4.74-1.1-9.2-2.95-12.4-6.84a28.4,28.4,0,0,0-9.36-7.23c-10.51-5.35-12.5-9.11-10.93-20.64a15.4,15.4,0,0,0-1.45-8.7c-3.33-7.25-2.9-14.45.14-21.65l.95-1c1.73-2.37,2.4-5.44,4.82-7.37A1.6,1.6,0,0,1,290.11,333.27Z" transform="translate(-33.73 -46.99)"/><path class="cls-54" d="M289.15,333.28c-1.51,2.45-1.74,5.85-5.12,6.91-1.79-1.95-2.82-.1-4.13.75-7,4.57-13.47,10.1-21.29,13.27-9.87,4-19.72,5.62-29.9.1-16.19-8.77-30.44-20-43.58-32.75-1.18-1.14-2.48-2.17-3.72-3.25a177.32,177.32,0,0,1-11-15.95c-.56-1.39-2.13-2.26-2-4-1.44-5.53-2.92-11.05-4.31-16.59a41.62,41.62,0,0,1-.64-4.34c3.74.2,3.26,3.44,4.1,5.72,4,11,8.6,21.67,16.53,30.55a247.36,247.36,0,0,0,45.76,36.63c9.8,6,20.2,4.92,29.53-1.7,8.4-5.95,17.51-10.84,25.47-17.4,1.12-.92,2.46-2.08,4-1.07C290,330.93,289.77,332.18,289.15,333.28Z" transform="translate(-33.73 -46.99)"/><path class="cls-55" d="M283.08,341.18a20.26,20.26,0,0,1-.7,6.86c-1.64,5-.05,9.72,1.84,14.31a17,17,0,0,1,1.17,11c-1.85,7.78,1,12.81,8.86,16.76a39.71,39.71,0,0,1,12.43,9.5c4.26,4.87,11,5.29,17.19,6.53,8.95,1.79,17.29.42,25.51-3.12,4.17-1.8,6.5-6,10.53-7.94-.5,4.6-5.35,6.14-7,9.93h0c-4.26,2.25-9,3.39-13.31,5.48-8.53-.17-17-.37-25.5-1.76-9.53-1.54-15.15-7.58-21.18-13.57-3.46-3.44-8.28-5.79-9.7-11.05-3.12-10.35-3.49-21.1-4.58-31.74-.23-2.25.71-4.19,1.45-6.19C280.49,344.18,281.09,342.27,283.08,341.18Z" transform="translate(-33.73 -46.99)"/><path class="cls-54" d="M280.09,346.21c-1.32,12.92,1.53,25.39,4,37.91-1.15.63-1.43-.45-2-1-3.1-7.34-2.54-15.33-4.05-23C278.83,355.52,276.49,350.44,280.09,346.21Z" transform="translate(-33.73 -46.99)"/><path class="cls-13" d="M170.45,302.36a72.34,72.34,0,0,1,11,15.95C176.52,313.84,172.57,308.73,170.45,302.36Z" transform="translate(-33.73 -46.99)"/><path class="cls-56" d="M305,129.85a154.09,154.09,0,0,1-13.24,17.67c-1,1.07-1.78,3.41-3.73,2.33-1.74-.95.4-2.65.05-4,2-5.62,6.48-9.7,9.48-14.71.84-1.4,1.66-2.82,2.5-4.23.53-2,1.18-3.86,3-5l3.33-2.32C308.55,123.42,305.26,126.44,305,129.85Z" transform="translate(-33.73 -46.99)"/><path class="cls-57" d="M282.14,383.12l2,1a4.4,4.4,0,0,0,2.25,3.66c5.58,3.68,9.68,9,14.52,13.43,3.65,3.37,7.65,4.71,12.26,6.2,8.91,2.87,18,.46,26.81,2.64a2.38,2.38,0,0,1,3,0c-4.69,2.86-9.93,2.14-15,1.92-8.06-.35-16.25-1.32-23.36-5.27C294.82,401.24,285.46,395,282.14,383.12Z" transform="translate(-33.73 -46.99)"/><path class="cls-22" d="M343,410.05h-3c4.06-2.32,8.19-4.48,13-5C350.46,408.44,346.27,408.39,343,410.05Z" transform="translate(-33.73 -46.99)"/><path class="cls-58" d="M328.9,364.26c3.93,1.22,7.87,2.37,12.06,1.92,6.14-.08,12.05,1.53,18,2.61,3.56.64,5,3.21,4.46,7.08-1.53,10.75-12.65,22-23.4,23.66a48.11,48.11,0,0,1-18.79-.3c-4.7-1.1-7.87-3.53-8.4-8.53-.31-3-1.71-4.66-4.68-5.61-4-1.28-4.55-3-2.65-6.25C307,376.34,325.83,364.59,328.9,364.26Z" transform="translate(-33.73 -46.99)"/><path class="cls-59" d="M328.9,364.26c-3.25,1.69-6.46,3.42-8.67,6.48a8.85,8.85,0,0,1-5.91,3.34A10,10,0,0,0,308.7,377c-1.47,1.54-3.7,3-3.05,5.31.53,1.88,2.94,1.67,4.75,1.9,2,.27,3.66,1.61,3.5,3.59-.65,8.24,4.73,9.59,11.1,10.88,15.05,3.05,32.06-5.69,36.2-19.06,2.47-8,1-10.15-7.29-10.43-4.53-.16-8.73-1.58-13-3,5.43-1.36,9.67-4.78,13.78-8.28,2.3-1.95,3.54-2,5.43.69,2,2.87,4.43,5.83,8.63,5.71,1.87,1.76,4.47.21,6.79,1.56l-4.68,9.32c-1.17,2.78-1.89,5.75-3.52,8.34-.58.94-1,2.1-2.49,1.61-3.29,3.64-6.28,7.6-9.92,10.84-10.08,8.94-22.1,8.5-34.37,6.47-5.7-.94-10.75-2.45-12.87-8.75-.72-2.12-3-2.89-5.12-3.58-3.61-1.18-7.25-2.28-10.76-3.7-3-1.2-4.37-3.68-3.35-6.8,1.17-3.56,4.25-3,6.57-1.82,4.93,2.58,7.76.6,10-3.66-.34-.76.06-1.31.53-1.83,3.18-2.16,3.23-6.23,5.5-8.95C317.3,359,322.31,359.28,328.9,364.26Z" transform="translate(-33.73 -46.99)"/><path class="cls-60" d="M306,373.14l-1,1a9.77,9.77,0,0,1-11.92-7.69c-.65-4.23,2.75-7.66,8.5-8.21,4.31-.41,7.84-3.85,12.42-3-2.42,3.68-6.46,5-10.09,7-1.49.78-3.58,1.39-3,3.31.67,2.18.39,5.48,4.08,5.62l1.05-.87A2.06,2.06,0,0,1,306,373.14Z" transform="translate(-33.73 -46.99)"/><path class="cls-61" d="M353.94,353.24c.69-4.93-2.1-6.95-6.39-8-2.92-.75-5.72-2-8.58-3,2.73-.42,1.94-2.58,2-4.2,0-2.78.22-5.47,2-7.77.05,9.76,10.23,15.88,20,12l-1,3h0c-2.69,2-5.91,3.41-6.89,7Z" transform="translate(-33.73 -46.99)"/><path class="cls-62" d="M305.05,371.13c-.33.78-1.11,1.94-1.6,1.59-2.44-1.73-3.28-4.66-4.17-7.26-.72-2.08,1.08-3.79,3.24-4.14,4.57-.74,7.66-4.13,11.53-6.09h0c3.78-.06,8-2.53,10.94,2-6.6-.57-12.84.21-18.11,4.73C303.86,364.55,301.91,367.33,305.05,371.13Z" transform="translate(-33.73 -46.99)"/><path class="cls-60" d="M325,357.23c-3.15-3.4-7.26-1.5-10.94-2,2.79-2,6-.55,9-1,6.28,2.75,12.06,7,19.54,6,2.55-.32,4.91-.64,6.44-3a3.61,3.61,0,0,1,3-3c.33,0,.66,0,1,0-.75,5.47-5.1,7.06-9.44,7.8C336.78,363.19,330.58,361.12,325,357.23Z" transform="translate(-33.73 -46.99)"/><path class="cls-22" d="M355,352.27c-1.24-5.81,3.6-5.67,6.89-7A32,32,0,0,1,355,352.27Z" transform="translate(-33.73 -46.99)"/><path class="cls-53" d="M306,373.14c0-1,.05-1.92.07-2.88,2.13-2,2-5.56,5-6.92C309.74,366.79,309.9,371,306,373.14Z" transform="translate(-33.73 -46.99)"/><path class="cls-63" d="M183.39,314.32c-5.49-4.7-7.92-11.35-11.37-17.4-3.56-6.23-4.57-13.49-8.56-19.47-1.82-4.46-1-9.31-2-13.88l5,1.92c3.3,2.75,4.29,7.13,7.29,10.2,1.48,1.52-.19,3.42-2,4.24-2.94,1.33-2.59,3.25-1.42,5.63,2.18,4.42,4.68,8.69,6.38,13.34,1,4.11,3.47,7.47,5.63,11C183.18,311.24,184.68,312.46,183.39,314.32Z" transform="translate(-33.73 -46.99)"/><path class="cls-64" d="M342.9,259.46c-2.54-.42-2.09-2.14-1.48-3.72.7-1.83,1.63-3.57,2.46-5.35a49.32,49.32,0,0,1,3.17-4.38c1.18-1.33,2.39-2.87,4.57-2.37a1.62,1.62,0,0,1,1.27,1.85,4.16,4.16,0,0,1-3.21,3.93c-2.37.79-3.65,2.61-5,4.53A8.55,8.55,0,0,0,342.9,259.46Z" transform="translate(-33.73 -46.99)"/><path class="cls-65" d="M363.91,328.84a33.13,33.13,0,0,1-3.42,10.06,4,4,0,0,1-5,2.2,69.85,69.85,0,0,1-9.36-4.48c-1.49-.83-1.5-2.7-1-4.05a26.23,26.23,0,0,1,7.4-10.9c1.65-1.39,4.2-2.91,6.33-1.59C361.65,321.83,363.94,324.38,363.91,328.84Z" transform="translate(-33.73 -46.99)"/><path class="cls-66" d="M380.86,354.22c-3,2.12-5.26-1.14-8-1-1-2.48-5.16-3.67-3.72-7,1.69-3.87,5.31-6.28,9-8,3-1.39,3.28,1.86,3.44,3.37A31.55,31.55,0,0,1,380.86,354.22Z" transform="translate(-33.73 -46.99)"/><path class="cls-6" d="M300,126.87c-2.46,7.28-7.52,12.92-12,18.94l-2.92,2C289.23,140.22,294.68,133.58,300,126.87Z" transform="translate(-33.73 -46.99)"/><path class="cls-55" d="M364.9,385.13c3.78-2.24,3-7.24,6-9.95-1.38,7.34-4.28,13.87-10,18.91C361.58,390.81,364.64,388.59,364.9,385.13Z" transform="translate(-33.73 -46.99)"/><path class="cls-20" d="M175.44,299.37c-1.49-5.11-4.45-9.53-6.71-14.28-1.3-2.74-2.07-4.83,2-5.93,2.86-.8,4.06-2.65.77-4.67s-3.1-6.13-5-9l6,1c2.07,4.61,5.63,5.08,10.11,4.07a20.77,20.77,0,0,1,7.93.15c7.84,1.36,15.56-.46,23.29-1a10.66,10.66,0,0,0,9.72-7.21c5.45-6.35,5.72-14.11,5.79-21.85.06-7-.08-7,7-7,.66,0,1.32.07,2,.1.05,1.05-.69,1.38-1.49,1.67a6.48,6.48,0,0,0-2.54,1c7.35,1.15,13.9,1.65,20.09-2.13,1.59,5.2.15,10.6,1,15.85a1.25,1.25,0,0,1,0,1.45c-4.22-3.35-8.87-5.36-14.41-4.76-4.81.53-7.41,2.82-7.23,7.7.33,9.35-3.55,16.28-11,21.53a13.68,13.68,0,0,1-6,2.65,56.45,56.45,0,0,1-15.23,1,88,88,0,0,0-25.4,2.86c-2.51.11-3.23,1.11-1.77,3.38a90.53,90.53,0,0,1,5.32,8.3c.9,1.79,2.57,3.7.29,5.72A4.38,4.38,0,0,1,175.44,299.37Z" transform="translate(-33.73 -46.99)"/><path class="cls-67" d="M310.1,206.53c1.6,3.1,5.86,4.29,5.9,8.57,0,2.49.2,4.72-3.23,4.66-10.25,0-20.51-.27-30.76-.07a66.28,66.28,0,0,0-19,2.7c-2.55.82-4.69,2.1-5.62,4.43-1.29,3.22-3.32,3.85-6.54,3.7-6.1-.28-12.23-.09-18.34,0-1.89,0-3.84.12-4.64-2-2.46-6.48-8.38-6.77-13.82-7.85-2.57-.51-5.19-.7-7.79-1,4.14-1.52,7.86-3.39,10.78-7.08,2.37-3,5.82-1.91,8.39.3,2.91,2.51,5,5.58,5.27,9.73.13,2.25-.37,5.31,3.38,5.53,4.5,0,9,0,13.47,0,2.91,0,4.32-1.22,4.26-4.16,0-1.16,0-2.33,0-3.49.82-12.93,7.89-14.49,17.45-12.82,2.9.5,4.6,2.52,5.33,5.32.81,3.09,2.94,4.15,6,4.16,6.14,0,12.29,0,18.44,0,3.2,0,4.3-1.33,4.32-4.52,0-2.91-.54-6,1.12-8.77C307.51,202.19,309.16,203.6,310.1,206.53Z" transform="translate(-33.73 -46.99)"/><path class="cls-68" d="M303.09,249.54c.73,2.45.85,5.17,3.1,7,.9,5.05.23,6-5.13,6.89a231.23,231.23,0,0,1-27.36-.23c-4.24-.35-8.69-.62-11.53-4.64-.06-2.81-.58-5.77,2.61-7.43,2.75.57,5.47,1.47,8.35.81,3,.37,5.75-.64,8.56-1.36,3.58-.49,7.11-1.39,10.75-1.47,2.77-.21,5.46-1,8.26-1.07A2.34,2.34,0,0,1,303.09,249.54Z" transform="translate(-33.73 -46.99)"/><path class="cls-69" d="M167.5,224.73c4.09-1.46,8.36-1.23,12.6-1.28a137.08,137.08,0,0,1,21.54,0l13.65,1.34c1.07,3.57-1.82,3.55-3.87,4.16-4.91,1.46-10.09.42-15,1.56-3,1.07-5.84,2.62-9,3.32a11.21,11.21,0,0,0-7.82,4.6c-2.33,3.08-5.65,4.37-9.18,2.77s-3.37-5-2.65-8.18C168.41,230.17,166.78,227.51,167.5,224.73Z" transform="translate(-33.73 -46.99)"/><path class="cls-70" d="M221.71,258.66c-3.35,3.73-8,4.35-12.49,4.61a220.38,220.38,0,0,1-25.83,0c-.45-.21-1.08-.44-1.15-.87-.52-3.1,5.82-12.23,9.08-13.18,1.05-.08,2.1-.05,3.15-.06a61.67,61.67,0,0,1,8.43,1.36,18.48,18.48,0,0,0,4.36.78,18.38,18.38,0,0,0,6.48.56C218.1,252.14,221.27,253.79,221.71,258.66Z" transform="translate(-33.73 -46.99)"/><path class="cls-71" d="M167.5,224.73c1.64,2.78,2.64,5.63,1.44,8.9-.94,2.55-.51,5.42,1.73,6.52a5.64,5.64,0,0,0,7.46-1.94c2.22-3.39,5.12-5.43,9.21-5.67.16,2.69-2.29,3.3-3.78,4.57-3.47,3-6.24,6.28-6.83,11-5,.48-7.16,3.37-7.29,8.32-.08,3-2.17,4.2-5.05,4.13a6.86,6.86,0,0,1-3-4.92,87.1,87.1,0,0,1-.83-20.77C161,230.43,161.94,225.87,167.5,224.73Z" transform="translate(-33.73 -46.99)"/><path class="cls-72" d="M255,251.64l.29-1.45c1.18,6.44,3.12,12.41,9.87,15.26,2.2,3.05,5.48,4.1,8.95,4.49,8.36.93,16.75,1.38,25.16,1.53,1.49,0,3-.18,4.18,1,.94,2.72.88,5.26-1.36,7.39-4.26,1.83-8.8,1.2-13.14.9-8-.56-16.18-.29-23.58-4.22-6.56-5.39-12.21-11.29-11.51-20.72C254,254.36,253.9,252.83,255,251.64Z" transform="translate(-33.73 -46.99)"/><path class="cls-73" d="M233.35,229.46c-4.47.17-4.12-3.51-3.92-5.9.36-4.23-2-7-4.42-9.47s-5.78-3.69-8.19.43-5.86,5.91-10.6,5.14l-6.84-.3a.92.92,0,0,1,.26-1.21c1.65-1,3.53-.66,5.31-.91,3-.42,3.94-2.59,4.43-5.18s-1.12-3.46-3.14-4.24c-3.09-1.21-4.57-5.34-8.65-4.83-1.2-2.05.58-2.44,1.76-3.16l2.16-.33,2.83.2c2.83,4.24,6.18,4.89,10.7,2.24a19,19,0,0,1,7.5-2.12,2.61,2.61,0,0,1,2,.9c-.14,2.08-.65,4,2.17,5.17,5.81,2.46,8.27,7.27,7.86,13.49C234.32,222.75,235.48,226.3,233.35,229.46Z" transform="translate(-33.73 -46.99)"/><path class="cls-74" d="M317,224.76c-2.59,2.48-1.94,5.7-1.95,8.75,0,3.35-1.1,4.42-4.5,2.9-3-1.35-5.87-3.71-9.59-2.79-4.18.1-7.77-2-11.61-3.11-4.25-1.19-9-.08-12.92-2.7-1.09-.73-2.58-1.28-2.22-2.87.33-1.44,2.1-.44,2.93-1.24l4.73-.25a136.06,136.06,0,0,1,21.46,0C307.92,223.44,312.53,223.28,317,224.76Z" transform="translate(-33.73 -46.99)"/><path class="cls-75" d="M199.37,218.59c0,.25,0,.51,0,.77-12,.36-24.11-.59-36,2.28-1.76-.36-1.89-1.24-1-2.68,1.08-1.74,2-3.58,3-5.37,2.61-2.05,5-5.05,8.62-1.35.89.9,2-.22,3.07-.8,6.27-3.53,12.67-6.82,18.42-11.22a4.48,4.48,0,0,1,3.81-.39l-2,2.83c.2,3.12-2.54,3.55-4.42,4.55a25.18,25.18,0,0,0-10.2,9.35C188.37,218.63,194.26,215.66,199.37,218.59Z" transform="translate(-33.73 -46.99)"/><path class="cls-76" d="M223.5,262.53c2.3.48.85,1.84.39,2.52-2.29,3.48-5.79,6-9.69,6.19-9.65.53-19.32,2.09-29,.59a10.39,10.39,0,0,0-3.89.11c-6.77,1.44-7.31,1.07-8.86-5.44,13.84,1.73,27.68,1.14,41.5-.12A17.61,17.61,0,0,0,223.5,262.53Z" transform="translate(-33.73 -46.99)"/><path class="cls-77" d="M277.13,223.7l-2.63,1.81c3.44,1.66,6.57,3.28,10.4,3,1.73-.11,3.68-.59,5.23.83-1,1.45-2.54,1.54-4,1.43-8.23-.67-14.63,2.73-20,8.66a6.77,6.77,0,0,1-1.93,1.51c-5.58,1.24-5.61,1.24-5.55-4.1,0-1.47-.39-3,.41-4.39.43-4.69,3.11-7,7.69-7.55C270.27,224.53,273.58,223.19,277.13,223.7Z" transform="translate(-33.73 -46.99)"/><path class="cls-78" d="M191.65,250.35c-2.21.2-4,.61-4.38,3.47a9.27,9.27,0,0,1-3.69,6.57c-1.41,1-.65,1.91-.19,2.91a36.28,36.28,0,0,1-10.94-.95,1.92,1.92,0,0,1,.48-3c4.63-3.3,4.48-7.94,3.81-12.78,1.71-3.92,4.19-7,8.75-7.6.45.2,1.09.54,1,.93C186,244.54,187.72,248,191.65,250.35Z" transform="translate(-33.73 -46.99)"/><path class="cls-79" d="M195.36,229.47c5.17-2.09,10.77-.22,16-1.8,1.82-.54,3.64-.45,3.88-2.88,7.37.85,9.69,3,10,10.13.22,5.54.77,11.14-1,16.58-3.16-.62-2.25-3.33-2.75-5.32.77-3-.71-5.32-2.52-7.5-4.62-5.4-10.53-7.83-17.58-7.84C199.35,230.84,197.06,231.36,195.36,229.47Z" transform="translate(-33.73 -46.99)"/><path class="cls-80" d="M303,272.34c-10.29,1.31-20.5-.43-30.69-1.23-2.79-.22-7.39-.5-7.1-5.66,11.49,2.54,23.17,1.83,34.8,1.93,1.73-.47,3.65-1.16,4.64,1A2.74,2.74,0,0,1,303,272.34Z" transform="translate(-33.73 -46.99)"/><path class="cls-81" d="M303,272.34c2.06-3.5.83-5-3-5a7.18,7.18,0,0,1,1.31-.58c1.33-.3,3.46.53,3.51-1.67.08-2.86-2.56-1-3.76-1.75,3.81-.74,4.88-3.51,5.13-6.89,3.44-.76,1.16,2.05,1.87,3-2.93,14.75-4.51,29.74-8,44.4a82.46,82.46,0,0,1-7,19.45c-1.17.42-1.8-.22-2.28-1.16.79-2.71,2.66-5,3.09-7.84,1.2-4.08,2.16-8.2,3.1-12.34.8-3.57,1.23-7.2,2-10.78,1.13-3.84.63-8.09,2.94-11.63C302.65,277.23,303.42,274.87,303,272.34Z" transform="translate(-33.73 -46.99)"/><path class="cls-82" d="M222.5,245.24c.4,2.14.3,4.43,1.79,6.26-.4,2.55-.12,5.35-2.58,7.16a10.8,10.8,0,0,0-8.24-6.12c-.89-1.15-.31-2.34-.12-3.52a16.1,16.1,0,0,0,.47-7.07c-.33-2.27-2.75-4.55,0-6.81,3-.35,4.35,1.86,5.93,3.72C221.06,240.82,222.46,242.74,222.5,245.24Z" transform="translate(-33.73 -46.99)"/><path class="cls-83" d="M177.32,246.3c1.74,5.49,2.17,10.58-3.9,13.94-.54.3-.66,1.38-1,2.11-2.8-.11-5.58-.28-8.06-1.8,2.6-1.32,4.39-2.79,4.19-6.34-.28-5,3-7,7.68-7C176.24,246.51,176.59,246.2,177.32,246.3Z" transform="translate(-33.73 -46.99)"/><path class="cls-84" d="M254.29,234.34c-.19,1.26.07,2.78-1.75,3.11a63.12,63.12,0,0,1-16.74,1c-2-.16-3-1.7-4-3.3,2.18-1.21,4.62.35,6.4-1.37A65.4,65.4,0,0,1,254.29,234.34Z" transform="translate(-33.73 -46.99)"/><path class="cls-85" d="M259.14,232.49a12.1,12.1,0,0,1,.1,1.47c-.15,3.59-1,7.68,5,6.61a5.33,5.33,0,0,1,1.62,3.25,15.56,15.56,0,0,1-1.11,6.33c-1.51,1.47-2.27.06-3.12-.85s-.82-2.61-2.56-2.65A26.49,26.49,0,0,1,259.14,232.49Z" transform="translate(-33.73 -46.99)"/><path class="cls-86" d="M259.08,246.65c.37-1.59,1-1.8,2.16-.53s.72,3.6,2.73,4.37c1-.46,1.27,0,1.12,1-2.3,1.8-1.48,4.89-2.92,7C259.51,255,259.08,250.87,259.08,246.65Z" transform="translate(-33.73 -46.99)"/><path class="cls-79" d="M201.64,223.45H180.1A66,66,0,0,1,201.64,223.45Z" transform="translate(-33.73 -46.99)"/><path class="cls-77" d="M303.32,223.45H281.86C289,222.63,296.17,222,303.32,223.45Z" transform="translate(-33.73 -46.99)"/><path class="cls-87" d="M222.29,200.65a86.85,86.85,0,0,0-8.26,2.91c-6.69,3.08-6.71,3.15-9.69-3.86,1.85-.59,3.44.3,5.09.87,3.18,1.87,5.93-.24,8.84-.94a8.57,8.57,0,0,1,5-.94C223.88,199.81,222.84,200.11,222.29,200.65Z" transform="translate(-33.73 -46.99)"/><path class="cls-32" d="M218.27,199.63c-2.75,2.19-5.6,3.44-8.84.94a8.82,8.82,0,0,0,8.85-2.91C218.27,198.32,218.27,199,218.27,199.63Z" transform="translate(-33.73 -46.99)"/><path class="cls-88" d="M310.1,206.53c-1.52-1.23-3-2.52-5-3a4.83,4.83,0,0,1-2.88-.41c-8.83-3.86-17.8-4-27-1.43-5.8,1.59-7.94.33-9.94-4.84.14-1.15.3-2.29,1.84-2.35l6.32-2.69c.72-1.26,2-1.63,3.23-2.07a12.07,12.07,0,0,1,3.22-.43c4.15,0,8.31-.1,12.47,0a39.39,39.39,0,0,1,10.48,3.27c3.79,2.9,9,4,11.06,9.08.07.15.16.29.22.44.81,1.93,4.18,3.42,2,5.81S312.22,206.76,310.1,206.53Z" transform="translate(-33.73 -46.99)"/><path class="cls-89" d="M279.14,190.61l-2.94.46c-1.2-1.55-.4-2.53,1-3.34l11.92-8c2.15-.48,4-1.28,6.1,1,5,5.48,5.8,5.4,12.26,1.39.82-.51,1.73-.9,2.6-1.35.41-.26.84-.51,1.24-.78,1.65-1.12,2.58-4,5.19-2.79s.34,3.49.51,5.26c.45,5,1.48,10,.07,15-.54,1.94-.69,3.92-3.19,4.32q-5.47-4-11-8c.7-1.38,3.17-1.86,2.3-4-.76-1.83-2.56-1.11-4-1a6.75,6.75,0,0,1-5.71-2.48c-3-3.64-6.06-3.19-9.41-.49-1.67,1.34-3.53,2.45-5.2,3.81C280.37,190,279.7,190.21,279.14,190.61Z" transform="translate(-33.73 -46.99)"/><path class="cls-90" d="M267.09,194.54c-.89.46-.83,1.38-1,2.17-7.24,4.55-16.08,7.51-23.27,4.3-6.43-2.89-11-2.73-16.58-.17a2.17,2.17,0,0,1-1.91-.18h-2l1-2,9-4c4.19-1.87,7.79-1.36,10.8,2.37a3.43,3.43,0,0,0,5.16.66c4.93.39,9.34-1.65,13.88-3C263.79,194.18,265.37,192.86,267.09,194.54Z" transform="translate(-33.73 -46.99)"/><path class="cls-87" d="M248.22,197.7c-1.47,2.67-3.55,2.38-5.05.41-2.92-3.84-6.86-3.62-10.91-3.44,4-4.41,7.7-2.09,10.77,1A6.43,6.43,0,0,0,248.22,197.7Z" transform="translate(-33.73 -46.99)"/><path class="cls-45" d="M277.17,187.73c-.33,1.11-.65,2.23-1,3.34-.72,1-1.81.69-2.79.78-.79-.18-1.79-.12-2.3-.6s.19-1.1.76-1.39C273.57,189,274.92,187.25,277.17,187.73Z" transform="translate(-33.73 -46.99)"/><path class="cls-91" d="M352,354.25l-3,3c-7.77,2.86-14.4.82-21.39-3.4-6.23-3.77-13.39-6.18-21.23-4a20.53,20.53,0,0,1-10.32-.15c-3.69-.91-6.08-3.16-5.76-6.93a6.58,6.58,0,0,1,6.57-6.37c12.64-.1,25.46-1.12,36.52,7.36,4.08,3.12,9.38,4.08,14.33,5.36C350.62,349.88,352,351.32,352,354.25Z" transform="translate(-33.73 -46.99)"/><path class="cls-92" d="M291.1,322.31l2,1c-.35,3.5-3,6.32-3,9.93h-1c-.2-1.59,0-4.13-2.61-1.85-7.93,6.82-17.26,11.57-25.68,17.66-10.71,7.75-22.18,8.52-33.94,1a282.31,282.31,0,0,1-40.28-32c-1.19-1.12-2.17-2.48-3.25-3.72-2.25-5.2-6.51-9.32-7.95-14.95h4.95c3.53,4,5.67,8.88,9.08,13,7.07,8.52,14.9,15.94,24.76,21.24,6.27,3.36,11.84,8,18.37,11,7.09,3.28,14.26,3.73,21.09,0,11.59-6.39,23.64-12.08,33.84-20.75A4.74,4.74,0,0,1,291.1,322.31Z" transform="translate(-33.73 -46.99)"/><path class="cls-93" d="M265.06,243.42c-1.39-.63-.37-1.95-.81-2.85,4.76-7.49,11.63-11.2,20.47-11.29,1.8,0,3.61.06,5.41.1L301,233.62c3.82,3.68,8.2,6.88,10.34,12a13.29,13.29,0,0,1,.55,2.78l-1.55-1.2c-4.07-.67-5.61-5.14-9.38-6.25-2.67-2.3-5.26-4.76-9.19-4.41a5,5,0,0,1-3.27-1c-5.34-3.15-10.43-1-15.53.75C270,238.36,267.73,241.09,265.06,243.42Z" transform="translate(-33.73 -46.99)"/><path class="cls-94" d="M301.08,240.56c4.25.57,6.54,3.86,9.21,6.63-1.56,3.36-4.64,2.05-7.2,2.35l-1.75-1c-1.19-.66-1.38-1.83-1.54-3C299.79,243.75,299.61,241.94,301.08,240.56Z" transform="translate(-33.73 -46.99)"/><path class="cls-95" d="M301.92,279.59a35.53,35.53,0,0,1-1.87,11.79c-4.46.75-8.72-.77-13.06-1.25-6.87-.75-8.52.69-7.66,7.71a4.49,4.49,0,0,1-.63,3.27,4.6,4.6,0,0,1-2.9,1.49c-9.77,1.38-19.86.44-29.28,4.23a8.31,8.31,0,0,1-6.31,0,47.67,47.67,0,0,0-19-3.06c-2.8.06-5.65.05-8.15-1.6a5.42,5.42,0,0,1-2.21-6.54c1.2-3.83-1-5.27-4.23-5.58a58.38,58.38,0,0,0-14.4.45c-4,.62-8,.57-11.29-2.39-1.53-1.37-2.85-3-2-5.2.75-2,2.7-2.25,4.54-2.42,7.38-.7,14.73-1.77,22.2-1.07a23.58,23.58,0,0,0,11.63-2l5-2c1.37-.61,2.67-2.58,4.26-.65,1.18,1.42.71,3.16-.07,4.67-1.86,3.6-5.1,6-7.94,8.83,4,2.73,7.49,6.56,13,5.84,2.92,0,5.45,1.13,7.93,2.47a7.08,7.08,0,0,0,6.61,1.2,61.58,61.58,0,0,0,12.81-5.37c3.6-2,4.31-5.58,1.82-8.86a75.84,75.84,0,0,1-5.43-8.9c-2.23-3.95-5.29-6.29-10.18-5.22-2.83.63-5.59-.4-8.38-.7-2-.21-4.34-.35-4.83-2.7-.53-2.53-.2-5.12,2.39-6.71,2.91,4.41,10.05,6.55,15.26,4.63,2.4-.88,2.28-2.66,1.55-4.47a25,25,0,0,0-4.7-8.15c-1.06-1.12-2.89-1.92-2.17-4,7.05-.15,8.28.85,9.86,7.92.77,3.49.66,7,2.26,10.51,2,4.32,5.11,7.18,8.81,9.72C277.08,279.91,289.56,279.25,301.92,279.59Z" transform="translate(-33.73 -46.99)"/><path class="cls-96" d="M291.1,322.31c-9.44,9.59-22,14.41-33.08,21.48-9.72,6.2-19.7,6.21-29.49.06-12.28-7.72-25.68-13.94-35.34-25.28-5-5.88-10.64-11.4-12.8-19.2-1.13-5.13-4.82-8.79-7.43-13.08-1.28-2.1-2.55-4.3,1.46-4.85a33.19,33.19,0,0,0,9.9,12.21c1.58,1.17,1.9,3,2.34,4.77,4,16,13.57,26.95,29.43,32.09a1.35,1.35,0,0,0,1.6-.55c-1.54-3.5-5-5.76-7-9-.92-1.48-2.71-2.69-1.33-4.79,2.06-.5,3.48.77,4.93,1.85a104,104,0,0,1,8.68,6.66c6.27,5.76,13.91,6.34,21.83,5.92.66,0-.15-.13.49-.07,13.6,1.36,22.48-7.14,31.59-15.14a9.06,9.06,0,0,1,3.23-2.25,1.65,1.65,0,0,1,1.34.35c1.29,2.51-.71,4.33-1.36,6.43-.37,1.19-1.49,2.47-.11,3.58,1.13.91,2.53.51,3.74,0,2.95-1.28,4.78-3.91,7.06-6,1.19-1.08,1.88-3.39,4.28-2.14C294.12,317.85,293.5,320.58,291.1,322.31Z" transform="translate(-33.73 -46.99)"/><path class="cls-97" d="M209.34,316.31c2,4.62,5.66,8,9,11.58.94,1,2.34,2.41,1.23,3.85-.82,1.07-2.47.63-3.73.2C201,327,191,317.05,186.46,302.23c-1.46-4.79-3.39-8.43-7.15-11.56-2.75-2.3-5.24-5.12-4.89-9.23,14-4.36,28.66-1.92,42.89-4-4.06,3.3-9,3.58-13.67,2.85-7.19-1.12-14,1.26-21.07,1.26-3.23,0-4,2-1.86,4.63,3,3.82,7.36,3.89,11.4,3,5-1.12,9.91-.77,14.84-.63,5.73.16,7.13,2.55,4.88,7.92-1,2.34.73,3.32,1.51,4.82a2.77,2.77,0,0,1-1.93,1.13,6.84,6.84,0,0,1-3-.28c-2-.91-4.16-1.6-5.44-3.61-.43-1,.22-2,0-2.9a1.86,1.86,0,0,0-2.75-1.23c-1.28.55-.7,1.65-.07,2.43a28.72,28.72,0,0,1,3.84,5.13c1.08,2.23,2.76,4.11,3.86,6.34C207.46,311.1,209.43,313.52,209.34,316.31Z" transform="translate(-33.73 -46.99)"/><path class="cls-98" d="M265.18,275.44c-7.57-1.82-9.65-8.08-10.79-14.43-.68-3.81-2.21-7.21-3.36-10.78-1-3.07-4.65-1.39-6.8-2.69a5.44,5.44,0,0,1-3.08,1.36c-3.47.8-5.26,3-5.57,6.53-.12,1.44-.06,3-1.32,4.05-3.3,6.52-2.91,7.16,3.69,8.07a30.51,30.51,0,0,0,9.69.2c4.22-.71,6.78,2.8,8.72,6.15s3.47,6.65,6.08,9.54c2.86,3.16,1.62,7.14-1.27,9.08a43.62,43.62,0,0,1-16.3,6.76c-2,.37-4.4.67-5.63-1.88,1.42-1.58,3.35-1.18,5.13-1.28,5.7-.31,11.29-3.44,12.3-6.93,1.6-5.54-.4-11-5.58-15.24-.93,1.4.18,2.51.53,3.7,1.62,5.45.69,7.6-4.39,9.88-4.67,2.09-9.15,1.18-13.37-1.18-3-1.65-3.12-4.46-2.34-7.42.38-1.46,1.56-2.55,1.88-4.06-6,4.33-7.41,11.52-3.53,17.51.6.93,1.8,1.58,1.41,3-6.42,1.33-9.74-4.81-14.87-6.42,2.84-3,5.92-6.16,8.78-9.46.93-1.08,1.7-2.73.71-4.13s-2.39.41-3.63.07c3.33-4.51,8.92-7.33,9.59-13.87.26-2.62.24-5.23.43-7.85.3-4,2.1-6.72,6.19-7.79,6.63-1.73,14.15.81,16.57,5.73C253.64,261.61,258.23,269,265.18,275.44Z" transform="translate(-33.73 -46.99)"/><path class="cls-99" d="M224.29,200.66c2.94-1.84,6.44-2.42,9.35-4.46,2-1.43,4.26-.51,5.57,1.51,1.8,2.77,4.34,3,7.29,3,6.8,0,13-2.81,19.55-4,1.77,5,5.39,5.08,9.63,3.66,10.29-3.45,20.13-2.66,29.41,3.2,0,3.72-.31,7.46-.08,11.16.16,2.77-.54,4-3.49,3.9-7.46-.12-14.94-.18-22.41,0-3.81.11-5.7-1.61-5.87-5.1-.19-3.81-2.64-4.58-5.64-4.93-10.84-1.26-14.43,2.92-14.42,13.42,0,8,1.38,7.51-7.38,7.45q-6.23,0-12.45,0l-.09-11c0-6.67-2.33-9.92-8.77-11.95C218.61,204.7,223.69,202.65,224.29,200.66Z" transform="translate(-33.73 -46.99)"/><path class="cls-100" d="M265.06,243.42c.6-4.23,4.43-5.57,7.1-7.94,3,.9,1,2.87.94,4.41a12.25,12.25,0,0,0,.2,8.54c.58,1.38,1.05,2.75-.09,4.09-2.93,1.36-5.75,1.82-8.12-1.06l-1.12-1C264.33,248.13,264.7,245.78,265.06,243.42Z" transform="translate(-33.73 -46.99)"/><path class="cls-101" d="M293,250.25l-11.63,1.49c-3.28.56-4.48-1.3-4.83-4.15a1.93,1.93,0,0,1,.82-1.35c6.09-.36,12.13-1.57,18.27-1.08C298.17,248.6,294.62,248.92,293,250.25Z" transform="translate(-33.73 -46.99)"/><path class="cls-102" d="M277,247.59c1,1.84,1.86,3.86,4.35,4.15-2.67.8-5.24,2.74-8.19.78-.91-4.27-3.41-8.41-1.05-12.94C273.44,242.46,273.94,245.82,277,247.59Z" transform="translate(-33.73 -46.99)"/><path class="cls-103" d="M293,250.25c1.07-1.51,3.14-2.42,2.88-4.73a1.88,1.88,0,0,1,0-2.19c2.55-1.41,3.9,0,5,2.11.14,1,.28,2.06.43,3.08C298.83,250.38,295.75,249.44,293,250.25Z" transform="translate(-33.73 -46.99)"/><path class="cls-104" d="M177.32,246.3l-1.06.94c-.51-4.83,3.11-7.37,5.87-10.31a53.73,53.73,0,0,1,5.21-4.39l8-3.07c9.68-.73,18.69.42,25,9,.47,1-.05,1.15-.89,1l-5.22-4.09c-7.11-1.16-14.23-2.86-21.14.82-2.57,1.12-4.82,3-7.71,3.38A25.76,25.76,0,0,0,177.32,246.3Z" transform="translate(-33.73 -46.99)"/><path class="cls-105" d="M203.2,251.64l-8.83-1.28c-2.44-1.37-5.19-2.59-2.86-6.17a22.32,22.32,0,0,1,9.67.23c4.63.92,7-.48,8-4.91a1.3,1.3,0,0,1,1.54.17C213.07,247.26,210.16,251.9,203.2,251.64Z" transform="translate(-33.73 -46.99)"/><path class="cls-106" d="M191.4,244.53c-.56,2.74,1.78,4,3,5.83h-2.72c-8-.17-5.63-6.34-6.21-10.79l6.88-4.26.46.47c.28,1.92.73,3.81.89,5.74A11.31,11.31,0,0,1,191.4,244.53Z" transform="translate(-33.73 -46.99)"/><path class="cls-107" d="M203.2,251.64c5.89-.87,8.11-4.67,7.06-12.09,2.32-1,3.38,1.13,5,2,.44,2.75.57,5.47-.92,8-1.92,2-5,1.13-7,2.81C205.85,252.52,204.41,252.77,203.2,251.64Z" transform="translate(-33.73 -46.99)"/><path class="cls-108" d="M207.28,252.33c1.58-2.85,3.91-3.82,7-2.81l-.84,3C211.34,254.58,209.33,252.93,207.28,252.33Z" transform="translate(-33.73 -46.99)"/><path class="cls-109" d="M199.37,218.59c-5.14,0-10.28,0-15.42,0-1.1,0-2.47.44-3.13-.87-.78-1.55.52-2.44,1.4-3.36,3.33-3.47,6.58-7,11.27-8.77,1.5-.56,3.15-1.17,3.88-2.89,3.08-1.12,5.85-1.46,7.09,2.59a2.12,2.12,0,0,0,1.34,1.24c3.51.77,6.08,1.45,4.82,6.48s-4,5.9-8.27,5.64C201.36,218.55,200.37,218.59,199.37,218.59Z" transform="translate(-33.73 -46.99)"/><path class="cls-110" d="M219.51,239.46c.29-.34.59-.67.89-1,1.58,2,3.57,3.85,2.1,6.78C221.5,243.31,220.5,241.39,219.51,239.46Z" transform="translate(-33.73 -46.99)"/><path class="cls-111" d="M295,315.29c-3,1.32-4.28,4.41-6.7,6.35-1.41,1.14-2.58,2.58-4.36,3.18s-4,1.09-5.68-.23c-2.1-1.66.33-3.2.55-4.83.31-2.32,2.72-3.83,2.36-6.37.78-3.4,2.49-6.42,3.95-9.51,1.83-3.88,8.13-4.46,12.84-1.47Z" transform="translate(-33.73 -46.99)"/><path class="cls-96" d="M298,302.41c-3.26-2.1-6.58.75-10-.13-1.51-.39-1.82,1.94-2.36,3.16-1.24,2.8-1.73,6-4.46,7.95l-.11-.08c-1.66-.71-2-2.1-1.88-3.71a9.88,9.88,0,0,1,1.24-3.36c1.32-1.85,2.39-3.86,3.73-5.7,1.09-1.26,1.09-3.52,3.62-3.5a2,2,0,0,0,2.05-2.71c-.26-1.13-1.3-1.44-2.34-1.36-1.34.11-2.72.38-3,2-.21,1.11.52,2.25.08,3.41a4.87,4.87,0,0,1-2.09,2.05c-1.42.64-2.85,1.27-4.29,0a1.78,1.78,0,0,0,.12-.48c-1.35-11.46-1-11.65,11.14-10.68a35.94,35.94,0,0,1,10.6,2.08C299.7,295.12,299.4,298.86,298,302.41Z" transform="translate(-33.73 -46.99)"/><path class="cls-112" d="M215.23,241.52l-5-2c-.32,0-.64,0-1,0-3.81-2.25-7.44-5.19-12.35-3.13-1.54.27-3.07.43-4.4-.66a3.17,3.17,0,0,0-.24-.49c7.34-3.48,14.66-4.08,22,.06C211.9,237.83,215.15,239.43,215.23,241.52Z" transform="translate(-33.73 -46.99)"/><path class="cls-113" d="M280.16,189.64c2.16-4,6.37-5.38,9.84-7.65,1.73-1.13,3.39.39,4.66,1.79,2.38,2.61,4.67,5.05,8.87,3.38,1.59-.63,3.22.44,3.48,2.49.39,3.08-1.34,4.12-4.1,4.11l-9.82-3.23C288.83,189.44,284.4,191,280.16,189.64Z" transform="translate(-33.73 -46.99)"/><path class="cls-45" d="M280.16,189.64c4.3.43,8.73-1,12.93.89l-13.95.08Z" transform="translate(-33.73 -46.99)"/><path class="cls-114" d="M296.16,243.6c-.09.64-.17,1.28-.25,1.92-6.22,1-12.4,2.63-18.76,1-2.75-1.79-2.43-3.85-.54-6,4.06.1,5.46-2.63,6.32-6,2.08-1.61,4.13-.72,6.18,0,.71,1.17,1.87.95,2.95,1C295.24,237.31,297.23,239.67,296.16,243.6Z" transform="translate(-33.73 -46.99)"/><path class="cls-115" d="M289.11,234.58c-2.11.25-4.54-1-6.23,1.29-2.9.17-4.4,2.14-5.66,4.41-1.06,2.07-1.38,4.15-.07,6.25,0,.35-.07.71-.11,1.06-6.52.31-4.41-4.64-4.89-8-.37-1.37,2.06-2.73,0-4.1C277.7,233.1,283.26,231,289.11,234.58Z" transform="translate(-33.73 -46.99)"/><path class="cls-115" d="M296.16,243.6c-.58-3.08-2.38-5.54-4.1-8,4.2-.47,6.93,1.69,9,5-.06,1.63-.12,3.26-.17,4.88C299.44,244.53,298.17,243.1,296.16,243.6Z" transform="translate(-33.73 -46.99)"/><path class="cls-116" d="M234.26,259.48c0-1.82-.11-3.66.06-5.47.39-4.36,3.68-6.47,9.91-6.47,4.36,2.85,6.47,7.33,8.36,11.88,1.7,4.07.41,5.91-4,6q-4.21.12-8.43,0C236.39,265.34,233.77,263.93,234.26,259.48Z" transform="translate(-33.73 -46.99)"/><path class="cls-117" d="M231.28,295.36c-7-5.68-6.06-18.56,1.7-23.07.79-.46,1.49-.76,2.24-.15a1.54,1.54,0,0,1,.46,2.18c-.17.28-.4.53-.57.81-2,3.17-5.17,6.44-1.14,10s13.07,3.08,16.23-.53c2.17-2.48.87-5.26-.3-7.9-.67-1.49-2.76-3.29-.33-4.71s3.84.69,4.54,2.49c1,2.64,3.69,4.21,4.11,7.24,1.53,10.87-3.73,14.67-14,15.64-1.65.15-3.32,0-5,0C236.52,297,234.26,294.8,231.28,295.36Z" transform="translate(-33.73 -46.99)"/><path class="cls-118" d="M211.16,301.46l2.18-.21c6.4,2.29,13.44-.37,19.64,2.14,7.72,3.12,14.81,1.6,22.47-.31,6.63-1.66,13.79-1.24,20.71-1.73.09,2.31-1.84,2.53-3.33,3.21-11.32,3-22.64,6.05-34.54,5.13-9.26-.72-18.24-2.59-26.66-6.7A1.38,1.38,0,0,1,211.16,301.46Z" transform="translate(-33.73 -46.99)"/><path class="cls-119" d="M273.16,303.32l3-2,2-.89,4-1c1.5,2.71-.52,4.95-1,7.41L280,309.18c-1.61,3.14-4.29,4.48-7.71,4.57-2.62-1.42-3.36-3-.34-4.82,1.67-1,1.36-2.33.66-3.74A1.86,1.86,0,0,1,273.16,303.32Z" transform="translate(-33.73 -46.99)"/><path class="cls-120" d="M272.18,313.42l7.86-4.24,1,4.13a216,216,0,0,1-18,14.64,13.56,13.56,0,0,1-7.17,3.1c-8,.45-16.05,1.71-24,.12-3.8-.76-6.81-3.21-9.8-5.57-4.14-3.25-8.08-6.77-12.75-9.29-1.63-2.36-3.73-4.6-2.05-7.83,2.33-.88,3.27,1.48,5,2.1.53.34,1,.72,1.53,1.09.69.46,1.4.88,2.12,1.29,1.38,1.08,3.06,1.17,4.69,1.4s2.06,3,4.28,1.94a26.63,26.63,0,0,1,6.4,2.14c8.13,2.4,16.26,2,24.39.08,3.6-.45,6.75-2.55,10.39-2.85,1.4-.64,2.84-1.2,4.26-1.81A3.93,3.93,0,0,1,272.18,313.42Z" transform="translate(-33.73 -46.99)"/><path class="cls-121" d="M192.38,308.05c0-2.24,0-4.69,3-4.57,2.28.08,5.31-2.5,6.68,2.07,1.46,4.84,4.61,9.06,5.86,14.05.34,1.34.59,2.6-.4,3.74s-1.95.88-3.15.49C199,322.06,192.43,313.47,192.38,308.05Z" transform="translate(-33.73 -46.99)"/><path class="cls-122" d="M212.3,311.45c-2.44.32-2.78-2.92-5-3a12.11,12.11,0,0,1-3.9-6.13c-.76-1.3-1.06-2.6,0-3.89,1.6,1.08,3.73,1.23,5,2.89,2.28,2.16,2.54,5.56,4.8,7.79C214,309.94,213.29,310.93,212.3,311.45Z" transform="translate(-33.73 -46.99)"/><path class="cls-123" d="M203.38,298.46v3.89c-1.44-1.57-2.86-3.16-4.32-4.71-1.17-1.25-2.49-2.6-.95-4.25,1.93-2.08,4.21-.34,6,.29,2.42.87.46,2.24-.33,3.36A4.78,4.78,0,0,0,203.38,298.46Z" transform="translate(-33.73 -46.99)"/><path class="cls-124" d="M212.3,311.45c-.56-3.65-4.27-6.09-3.93-10.1l2.79.11a4.13,4.13,0,0,0,.19.75c1.19,1,3.05,1.15,3.46,3,.34,1.09.35,2.3,1.08,3.25,3.1,4,.81,4.39-2.67,4Z" transform="translate(-33.73 -46.99)"/><path class="cls-125" d="M242.62,285.45c-4.14,0-7.11-1.28-8-5-.54-2.31,4.39-5.92,7.57-5.92,3,0,7.15,3.48,6.77,6.16C248.46,284.41,245.68,285.66,242.62,285.45Z" transform="translate(-33.73 -46.99)"/><path class="cls-126" d="M197.27,235.73c5.18-2.3,7.92-1.41,12,3.86.06,6.91.08,6.81-6.68,6-3.73-.42-7.58.31-11.22-1.1-.09-1.53-.06-3,2-3.09A5.83,5.83,0,0,0,197.27,235.73Z" transform="translate(-33.73 -46.99)"/><path class="cls-127" d="M197.27,235.73c1.69,4.7,1.18,5.46-3.84,5.71-1.68-1.67-2.2-3.51-.88-5.64A6.46,6.46,0,0,1,197.27,235.73Z" transform="translate(-33.73 -46.99)"/><path class="cls-128" d="M284.1,298.18c-2.09-4.72-1.42-6.07,3.18-6.67,2.09-.27,3.82.54,4.32,2.37.57,2.05-1.48,5-2.48,4.59-3.4-1.34-2.65,2.22-4.17,2.81C284,300.44,284.1,299.29,284.1,298.18Z" transform="translate(-33.73 -46.99)"/><path class="cls-129" d="M284.1,298.18c1.15.79.53,2.08.85,3.1-1.33,1.81-1.71,4.27-3.76,5.6a15.72,15.72,0,0,1,1-7.4Z" transform="translate(-33.73 -46.99)"/><path class="cls-130" d="M277.22,240.28c-.46-4.48,1.45-5.92,5.66-4.41.52,1.87,1.2,3.79-.88,5.18C280.21,242.24,278.69,241.27,277.22,240.28Z" transform="translate(-33.73 -46.99)"/><path class="cls-131" d="M229.73,280.48c4.23,9.06,13.67,11.65,20.53,6.28a18.81,18.81,0,0,0,2.59-2.95c.73-.89-.22-3.28,1.83-2.8,1.73.41,1.44,2.31,1.21,3.83-1.27,8.59-6.57,11.85-16.92,10.4C231.76,294.23,228.46,289.31,229.73,280.48Z" transform="translate(-33.73 -46.99)"/><path class="cls-132" d="M214.39,305.37c-1-1.05-2-2.11-3-3.16,6.38,1.53,12.47,4.1,19,5.16,13.46,2.17,26.55.5,39.45-3.48a25.07,25.07,0,0,1,3.36-.57l-.06,2c-3.81,2.83-8.76,2.7-12.79,5-11.51.54-23,1.33-34.49-.43C222.2,307.92,217.43,308.83,214.39,305.37Z" transform="translate(-33.73 -46.99)"/><path class="cls-133" d="M261.13,309.24a21.66,21.66,0,0,1,12-3.89c3.6,1.63,2.42,3.6-.17,4.44-3.14,1-1.44,2.25-.75,3.63l-1,1c-1.8.34-3.48-.69-5.2-.59C262.6,314,261.34,312.25,261.13,309.24Z" transform="translate(-33.73 -46.99)"/><path class="cls-134" d="M261.13,309.24c1.39.33,3-.35,4.5,1.45l-4.5,1.3c4.15.45,7.43.3,10,2.39L267,316.46c-3.49,0-6.56-1.77-9.92-2.36a213.35,213.35,0,0,0-29.05,0c-2.46,1.09-5.34-.47-7.71,1.2-1.95.09-3.88.12-5.15-1.76,1.91-3.17,5-1.5,7.55-1.76.66.06.08-1.16.1-.49,0,.28-.09.36-.24.38-1.19.16-2.44.25-2.61-1.33-.12-1.18.83-1.78,1.87-1.9s2.27-.53,3.43-.16c2.73,1.66,5.79,1,8.69,1C243,309.41,252.08,309.28,261.13,309.24Z" transform="translate(-33.73 -46.99)"/><path class="cls-135" d="M230.48,319.44l-6.13-2.16c-.68-4.56,3.25-3.59,5.26-3.76,5.61-.5,11.28-.18,16.92-.18a62.05,62.05,0,0,1,7.47.14,3.94,3.94,0,0,1,3.52,3.07c.56,2.11-1.48,2.24-2.52,3.12A93.19,93.19,0,0,1,230.48,319.44Z" transform="translate(-33.73 -46.99)"/><path class="cls-136" d="M255.17,319.19c3.25-2.5,1.11-4.47-1.21-4.57-8.86-.36-17.76-.2-26.64-.06a2.77,2.77,0,0,0-3,2.72c-2.16,1.05-2.29-2.07-4-1.94,1.46-3.73,4.82-1.25,7.14-2.18a247.14,247.14,0,0,1,30.67.15,18.61,18.61,0,0,1,8.87,3.15c-3.77.6-7,3.2-11,2.93C255.64,319.74,255.36,319.68,255.17,319.19Z" transform="translate(-33.73 -46.99)"/><path class="cls-137" d="M225.3,308.32,220.79,310c.32,2.33,2.63.61,3.61,2.07-3.1.73-6.41-.15-9.2,1.56l-2-1.13c.71-.86,5.57.33,1.42-3a3.11,3.11,0,0,1-.25-4Z" transform="translate(-33.73 -46.99)"/><path class="cls-138" d="M255.17,319.19a2.3,2.3,0,0,0,.86.2,37.93,37.93,0,0,1-25.55.05Z" transform="translate(-33.73 -46.99)"/><path class="cls-139" d="M258.16,313.31l-30.68-.15C237.71,312,247.94,311.58,258.16,313.31Z" transform="translate(-33.73 -46.99)"/></svg>